<?xml version="1.0" standalone="no"?>
<!DOCTYPE svg PUBLIC "-//W3C//DTD SVG 1.1//EN" "http://www.w3.org/Graphics/SVG/1.1/DTD/svg11.dtd" >
<svg xmlns="http://www.w3.org/2000/svg">
<metadata>
<json>
<![CDATA[
{
	"fontFamily": "support_icon",
	"majorVersion": 1,
	"minorVersion": 0,
	"description": "Font generated by IcoMoon.",
	"version": "Version 1.0",
	"fontId": "support_icon",
	"psName": "support_icon",
	"subFamily": "Regular",
	"fullName": "support_icon"
}
]]>
</json>
</metadata>
<defs>
<font id="support_icon" horiz-adv-x="1024">
<font-face units-per-em="1024" ascent="960" descent="-64" />
<missing-glyph horiz-adv-x="1024" />
<glyph unicode="&#x20;" horiz-adv-x="512" d="" />
<glyph unicode="&#xe900;" glyph-name="info" data-tags="info" d="M556 624c0-24.299-19.7-44-44-44s-44 19.701-44 44c0 24.299 19.701 44 44 44s44-19.701 44-44zM545 228v264h-66v-264h66zM512 888c243.005 0 440-196.992 440-440 0-243.005-196.995-440-440-440-243.008 0-440 196.995-440 440 0 243.008 196.992 440 440 440zM512 822c-206.553 0-374-167.448-374-374s167.448-374 374-374c206.553 0 374 167.448 374 374s-167.448 374-374 374z" />
<glyph unicode="&#xe901;" glyph-name="wifiSpeed" data-tags="wifiSpeed" d="M96.194 637.875c114.784 101.623 262.949 157.43 416.249 156.793 153.302-0.646 301.003-57.694 414.926-160.274l46.395 51.523c-126.588 113.974-290.694 177.366-461.023 178.076s-334.965-61.298-462.506-174.214l45.958-51.915zM232.238 499.443c80.775 71.513 185.042 110.786 292.916 110.332 75.374-0.317 148.833-20.009 213.591-56.474l42.978 55.25c-77.142 45.526-165.5 70.174-256.279 70.552-124.911 0.524-245.641-44.954-339.171-127.753l45.958-51.915zM636.618 460.707c-43.843 21.675-92.38 33.306-142.055 33.514-79.484 0.338-156.32-28.609-215.83-81.302l45.958-51.914c46.766 41.402 107.131 64.142 169.587 63.882 34.192-0.14 67.703-7.175 98.65-20.365l43.703 56.186zM509.84 32c-76.581 0-138.663 62.079-138.663 138.663s62.082 138.663 138.663 138.663c23.91 0 46.41-6.055 66.044-16.713l251.090 292.943 52.647-45.118-252.928-295.079c13.806-21.554 21.814-47.19 21.814-74.698 0-76.583-62.085-138.663-138.664-138.663zM509.84 101.337c38.296 0 69.338 31.043 69.338 69.337s-31.043 69.337-69.338 69.337c-38.296 0-69.337-31.043-69.337-69.337s31.041-69.337 69.337-69.337z" />
<glyph unicode="&#xe902;" glyph-name="BankSm" data-tags="BankSm" d="M988.212 53.645v-75.69h-952.423v75.69h952.423zM454.986 909.24c26.232 11.739 56.26 11.739 82.49 0l346.91-155.221c36.311-16.254 59.672-52.364 59.672-92.149v-65.783h-138.763v-397.37h132.458v-75.69h-851.506v75.69h100.917v397.37h-138.763v65.783c0 39.785 23.361 75.891 59.673 92.149l346.91 155.221zM634.997 198.716h94.613v397.37h-94.613v-397.37zM433.158 198.716h126.149v397.37h-126.149v-397.37zM262.855 198.716h94.613v397.37h-94.613v-397.37zM506.53 840.155c-6.558 2.935-14.040 2.935-20.596 0l-346.91-155.221c-5.906-2.644-10.413-7.428-12.861-13.157h740.139c-2.451 5.729-6.955 10.512-12.862 13.157l-346.91 155.221z" />
<glyph unicode="&#xe903;" glyph-name="BankLg" data-tags="BankLg" horiz-adv-x="1066" d="M1007.020 19.615c-0.004 25.243-20.47 45.714-45.714 45.714h-841.143c-25.244 0-45.709-20.472-45.714-45.714v-9.143h932.571v9.143zM805.878 120.186h54.857v493.714h-54.857v-493.714zM293.878 120.186h457.143v493.714h-457.143v-493.714zM184.163 120.186h54.857v493.714h-54.857v-493.714zM604.735 312.186c0 6.589-2.815 13.366-8.551 18.693-5.803 5.387-14.083 8.733-23.101 8.735h-101.267c-22.313 0-44.097 8.202-60.447 23.387-16.42 15.247-26.062 36.392-26.062 58.899 0.002 22.501 9.646 43.631 26.062 58.878 16.351 15.182 38.135 23.408 60.447 23.408h23.205v45.714h54.857v-45.714h56.531v-54.857h-134.593c-9.022 0-17.316-3.365-23.122-8.756-5.73-5.323-8.528-12.087-8.531-18.672 0-6.589 2.796-13.368 8.531-18.695 5.805-5.39 14.1-8.733 23.122-8.733h101.267c22.311-0.002 44.076-8.225 60.429-23.408 16.417-15.247 26.081-36.373 26.081-58.878 0-22.507-9.661-43.652-26.081-58.899-16.353-15.178-38.12-23.387-60.429-23.387h-23.205v-45.714h-54.857v45.714h-83.981v54.857h162.043c9.017 0 17.295 3.346 23.101 8.733 5.736 5.327 8.551 12.104 8.551 18.695zM970.449 673.717c-0.002 18.020-10.593 34.352-27.040 41.714l-402.286 180.061c-11.88 5.315-25.468 5.315-37.349 0l-402.285-180.061c-16.448-7.362-27.040-23.694-27.041-41.714v-4.959h896v4.959zM1025.306 613.901h-109.714v-493.714h45.714c55.541 0 100.567-45.033 100.571-100.571v-64h-1042.286v64c0.005 55.538 45.030 100.571 100.571 100.571h9.143v493.714h-109.714v59.816c0.001 39.648 23.3 75.598 59.49 91.795l402.286 180.041c26.139 11.698 56.023 11.698 82.162 0l402.286-180.041c36.191-16.197 59.488-52.148 59.49-91.795v-59.816z" />
<glyph unicode="&#xe904;" glyph-name="copy" data-tags="copy" d="M633.146 895.522c45.189-4.58 80.454-42.721 80.454-89.122v-89.6h89.6l9.146-0.478c45.189-4.58 80.454-42.721 80.454-89.122v-537.6c0-46.396-35.265-84.534-80.454-89.124l-9.146-0.476h-403.2l-9.146 0.476c-45.188 4.582-80.454 42.72-80.454 89.124v89.6h-89.6l-9.146 0.476c-45.188 4.582-80.454 42.72-80.454 89.124v537.6c0 46.396 35.266 84.534 80.454 89.122l9.146 0.478h403.2l9.146-0.478zM220.8 828.8c-12.37 0-22.4-10.030-22.4-22.4v-537.6c0-12.368 10.030-22.4 22.4-22.4h403.2c12.368 0 22.4 10.032 22.4 22.4v537.6c0 12.37-10.032 22.4-22.4 22.4h-403.2zM377.6 89.6c0-12.368 10.030-22.4 22.4-22.4h403.2c12.368 0 22.4 10.032 22.4 22.4v537.6c0 12.37-10.032 22.4-22.4 22.4h-89.6v-380.8c0-46.396-35.265-84.534-80.454-89.124l-9.146-0.476h-246.4v-89.6z" />
<glyph unicode="&#xe905;" glyph-name="errorsolid" data-tags="errorsolid" d="M511.988 848.021c20.18 0 39.384-5.011 57.611-15.017 18.226-9.725 33.086-24.585 44.578-44.599l325.462-562.419c5.607-9.451 9.82-19.326 12.622-29.604 2.804-10.276 4.216-20.565 4.216-30.839 0-21.676-4.917-41.422-14.726-59.207-9.813-17.782-23.683-31.972-41.627-42.527-17.664-10.565-38.686-15.826-63.078-15.826h-650.094c-24.384 0-45.565 5.275-63.503 15.826s-31.82 24.738-41.627 42.527c-9.526 17.784-14.3 37.527-14.3 59.207 0 21.126 5.604 41.275 16.818 60.444l325.482 562.419c10.927 19.726 25.659 34.593 44.161 44.599 18.499 10.005 37.831 15.016 58.020 15.017zM511.988 292.445c-30.677-0.004-55.554-24.886-55.554-55.576 0.002-30.677 24.876-55.552 55.554-55.556 30.679 0 55.574 24.876 55.576 55.556 0 30.679-24.883 55.576-55.576 55.576zM470.325 625.784v-277.789h83.336v277.789h-83.336z" />
<glyph unicode="&#xe906;" glyph-name="error" data-tags="error" d="M511.99 856.062c20.582 0 40.183-5.095 58.772-15.3 18.592-9.921 33.742-25.113 45.467-45.525l332.008-573.712c5.72-9.634 10.014-19.696 12.875-30.179s4.307-20.99 4.307-31.477l-0.235-8.208c-1.097-18.908-6.028-36.299-14.78-52.176-10.011-18.138-24.152-32.62-42.458-43.386-15.767-9.425-34.165-14.716-55.185-15.894l-9.16-0.26-672.348 0.26c-18.034 1.007-34.232 5.041-48.574 12.114l-7.014 3.789c-18.299 10.776-32.467 25.245-42.471 43.386-9.717 18.141-14.582 38.278-14.582 60.384 0.001 21.548 5.719 42.103 17.157 61.656l332.008 573.712c11.149 20.125 26.173 35.321 45.046 45.525 18.87 10.205 38.602 15.298 59.195 15.3zM511.99 805.061c-11.757-0.002-23.183-2.817-34.922-9.16-9.672-5.228-17.893-13.112-24.681-25.364l-0.485-0.842-332.131-573.912c-7.116-12.166-10.176-23.897-10.176-35.922 0-14.242 3.042-25.926 8.43-36.060 5.466-9.784 12.978-17.572 23.489-23.769 9.207-5.421 21.551-9.105 38.906-9.105h663.163c17.373 0 29.422 3.698 38.176 8.925l0.135 0.097 0.161 0.077c10.628 6.25 18.184 14.14 23.669 24.064 5.569 10.095 8.688 21.662 8.688 35.764 0 5.789-0.793 11.768-2.512 18.046-1.612 5.934-4.055 11.773-7.515 17.59l-332.39 574.324c-7.533 13.122-16.083 21.017-25.265 25.921l-0.26 0.136-0.26 0.161c-11.298 6.198-22.481 9.003-34.226 9.003zM511.99 289.305c31.296 0 56.681-25.376 56.681-56.681-0.005-31.294-25.376-56.681-56.681-56.681-31.293 0.003-56.679 25.378-56.684 56.681 0 31.294 25.378 56.679 56.684 56.681zM554.509 345.986h-85.005v283.375h85.005v-283.375z" />
<glyph unicode="&#xe907;" glyph-name="usersolid" data-tags="usersolid" d="M298.667 298.667c-58.91 0-106.667-47.757-106.667-106.667v-106.667h640v106.667c0 58.91-47.757 106.667-106.667 106.667h-426.667zM512 512c70.694 0 128 57.308 128 128s-57.306 128-128 128c-70.694 0-128-57.308-128-128s57.306-128 128-128zM512 448c106.039 0 192 85.961 192 192s-85.961 192-192 192c-106.039 0-192-85.961-192-192s85.961-192 192-192zM298.667 362.667c-94.257 0-170.667-76.412-170.667-170.667v-170.667h768v170.667c0 94.255-76.412 170.667-170.667 170.667h-426.667z" />
<glyph unicode="&#xe908;" glyph-name="user" data-tags="user" horiz-adv-x="980" d="M755.468 348.894c115.115-5.837 206.658-101.032 206.661-217.596v-194.468h-962.129v194.468c0.001 120.327 97.545 217.872 217.872 217.872l537.596-0.277zM217.872 305.596c-96.262 0-174.297-78.038-174.298-174.298v-150.894h874.98v150.894c-0.002 96.26-78.040 174.296-174.298 174.298h-526.384zM481.064 943.66c125.893-0.001 227.951-102.066 227.958-227.958-0.002-125.895-102.062-227.955-227.958-227.958-125.898 0-227.958 102.060-227.958 227.958 0.004 125.892 102.064 227.958 227.958 227.958zM481.064 900.085c-101.829 0-184.379-82.556-184.383-184.383 0-101.831 82.552-184.383 184.383-184.383 101.829 0.002 184.383 82.552 184.383 184.383-0.007 101.826-82.556 184.382-184.383 184.383z" />
<glyph unicode="&#xe909;" glyph-name="usergroup" data-tags="usergroup" d="M398.664 334.665h-216.707c-30.532-0.006-55.289-24.761-55.297-55.295v-171.377h249.332v-68.004h-317.336v239.372c0.008 68.092 55.208 123.294 123.294 123.294h284.711l-68.004-68.004zM840.672 357.337c68.847 0 124.667-56.828 124.671-126.921v-190.411h-498.664v190.411c0.006 70.1 55.82 126.921 124.671 126.921h249.332zM591.332 289.333c-30.142 0-56.662-25.22-56.668-58.929v-122.411h362.668v122.411c-0.006 33.704-26.526 58.929-56.668 58.929h-249.332zM724.143 719.78c83.838-4.244 150.525-73.552 150.525-158.442l-0.227-8.142c-4.24-83.84-73.551-150.525-158.441-150.526l-8.143 0.226c-81.142 4.106-146.193 69.156-150.298 150.3l-0.227 8.142c0 87.631 71.036 158.668 158.668 158.668l8.143-0.226zM716 652.001c-50.068 0-90.664-40.593-90.664-90.664 0-50.069 40.596-90.664 90.664-90.664s90.664 40.595 90.664 90.664-40.596 90.663-90.664 90.664zM330.667 856.001c100.144 0 181.333-81.184 181.333-181.333s-81.184-181.333-181.333-181.333c-100.144 0-181.333 81.184-181.333 181.333s81.184 181.333 181.333 181.333zM330.667 787.997c-62.596 0-113.336-50.74-113.336-113.336s50.74-113.336 113.336-113.336c62.596 0 113.336 50.74 113.336 113.336s-50.74 113.336-113.336 113.336z" />
<glyph unicode="&#xe90a;" glyph-name="agent" data-tags="agent" d="M731.793 692.211c0 121.386-98.4 219.792-219.792 219.792s-219.792-98.401-219.792-219.792 98.401-219.792 219.792-219.792c121.387 0 219.792 98.401 219.792 219.792zM658.529 692.211c0-80.925-65.6-146.528-146.528-146.528-80.925 0-146.528 65.603-146.528 146.528s65.603 146.528 146.528 146.528c80.928 0 146.528-65.603 146.528-146.528zM438.737 374.736h-170.95c-107.901 0-195.371-87.472-195.371-195.371v-195.371h879.157v195.371c0 107.899-87.472 195.371-195.371 195.371h-170.95l-73.264-97.685-73.264 97.685zM621.894 301.472h134.315c67.434 0 122.107-54.666 122.107-122.107v-122.107h-732.631v122.107c0 67.434 54.666 122.107 122.107 122.107h134.315l109.893-146.528 109.893 146.528z" />
<glyph unicode="&#xe90b;" glyph-name="profile" data-tags="profile" d="M874.667 448c0 200.295-162.372 362.667-362.667 362.667s-362.667-162.371-362.667-362.667c0-200.294 162.371-362.667 362.667-362.667s362.667 162.372 362.667 362.667zM938.667 448c0-235.639-191.027-426.667-426.667-426.667-235.642 0-426.667 191.027-426.667 426.667 0 235.642 191.025 426.667 426.667 426.667 235.639 0 426.667-191.025 426.667-426.667zM447.104 606.050c-9.417-18.255-9.771-39.812-9.771-51.38 0-9.408 3.123-21.418 9.805-36.257 6.592-14.643 15.595-29.803 25.318-45.406 23.522-37.73 8.192-86.204-31.509-104.529l-57.964-26.752c-18.888-8.717-30.984-27.622-30.984-48.422v-37.299h-64v37.299c0 45.764 26.61 87.351 68.164 106.53l57.962 26.752c5.402 2.496 6.781 8.141 4.021 12.565-9.894 15.872-20.878 34.138-29.366 52.988-8.399 18.654-15.448 40.205-15.448 62.531v0.676c-0.007 12.092-0.027 47.244 16.895 80.046 8.951 17.353 22.78 34.391 43.675 46.892 20.843 12.468 46.758 19.257 78.097 19.257s57.254-6.789 78.097-19.257c20.894-12.502 34.722-29.54 43.674-46.892 16.922-32.802 16.905-67.954 16.896-80.046v-0.676c0-22.327-7.049-43.878-15.45-62.531-8.486-18.85-19.469-37.116-29.363-52.988-2.761-4.425-1.382-10.069 4.019-12.565l57.963-26.752c41.553-19.179 68.164-60.766 68.164-106.53v-37.299h-64v37.299c0 20.8-12.096 39.706-30.985 48.422l-57.963 26.752c-39.701 18.325-55.031 66.799-31.509 104.529 9.724 15.603 18.726 30.763 25.318 45.406 6.682 14.839 9.805 26.849 9.805 36.257 0 11.568-0.354 33.125-9.771 51.38-4.382 8.494-10.556 15.866-19.657 21.313-9.161 5.48-23.245 10.178-45.239 10.178s-36.079-4.698-45.239-10.178c-9.101-5.447-15.275-12.82-19.657-21.313z" />
<glyph unicode="&#xe90c;" glyph-name="vipsolid" data-tags="vipsolid" d="M194.158 766.895c46.708-23.658 86.705-60.056 115.242-90.863 29.3-31.63 46.52-57.366 46.52-57.366s9.279 28.041 28.473 68.499c18.735 39.49 46.915 90.81 85.14 139.434 12.988 16.524 27.136 32.736 42.466 48.067 15.317-15.317 29.483-31.514 42.513-48.023 38.464-48.735 67.021-100.182 86.059-139.715 19.418-40.332 28.924-68.263 28.924-68.263s17.041 25.835 46.161 57.548c28.22 30.74 67.789 67.002 114.18 90.615 20.817 10.595 43.008 18.644 66.163 22.503l-41.476-483.908c-7.569-88.282-81.438-156.092-170.044-156.092h-344.959c-88.607 0-162.476 67.81-170.043 156.092l-41.478 483.908c23.109-3.852 45.302-11.875 66.158-22.438zM800 21.333v64h-576v-64h576z" />
<glyph unicode="&#xe90d;" glyph-name="vipOutline" data-tags="vipOutline" d="M194.158 766.895c-20.856 10.563-43.049 18.587-66.158 22.438l41.478-483.908c7.567-88.282 81.436-156.092 170.043-156.092h344.959c88.606 0 162.475 67.81 170.044 156.092l41.476 483.908c-23.155-3.859-45.346-11.908-66.163-22.503-46.391-23.613-85.961-59.875-114.18-90.615-29.12-31.714-46.161-57.548-46.161-57.548s-9.506 27.931-28.924 68.263c-19.038 39.533-47.595 90.98-86.059 139.715-13.030 16.508-27.196 32.705-42.513 48.023-15.33-15.331-29.478-31.543-42.466-48.067-38.225-48.624-66.406-99.944-85.14-139.434-19.194-40.458-28.473-68.499-28.473-68.499s-17.22 25.736-46.52 57.366c-28.538 30.807-68.535 67.205-115.242 90.863zM302.198 583.846l0.554-0.804c0.006-0.009 0.006-0.008 0.006-0.009s0.001-0.001 0.004-0.005l0.044-0.065 72.742-108.715 41.428 125.17c0.287 0.828 0.763 2.182 1.429 4.015 1.333 3.669 3.424 9.244 6.284 16.358 5.734 14.256 14.489 34.53 26.354 57.935 15.561 30.687 35.9 65.638 61.018 99.171 25.331-33.641 45.948-68.709 61.769-99.487 12.049-23.449 20.988-43.762 26.854-58.051 2.927-7.13 5.073-12.72 6.447-16.404 0.683-1.841 1.173-3.201 1.472-4.036l0.299-0.851 0.009-0.025 0.009-0.023 0.009-0.020 0.009-0.030 0.009-0.020 42.057-123.558 72.435 109.79c0.533 0.778 1.421 2.055 2.641 3.767 2.449 3.429 6.221 8.569 11.183 14.901 9.984 12.737 24.478 29.907 42.394 47.543 13.611 13.403 28.203 26.086 43.388 37.161l-32.286-376.665c-4.727-55.177-50.897-97.557-106.274-97.557h-344.959c-55.38 0-101.548 42.381-106.277 97.557l-32.308 376.925c15.5-11.189 30.408-24.035 44.32-37.615 18.105-17.672 32.786-34.875 42.907-47.636 5.032-6.345 8.861-11.497 11.348-14.936 1.242-1.717 2.143-3 2.686-3.782zM245.306 86.238h-32v-64h598.069v64h-566.069z" />
<glyph unicode="&#xe90e;" glyph-name="warningFill" data-tags="warningFill" d="M426.667 21.333c235.639 0 426.667 191.027 426.667 426.667 0 235.642-191.027 426.667-426.667 426.667-235.642 0-426.667-191.025-426.667-426.667 0-235.639 191.025-426.667 426.667-426.667zM466.667 661.333v-266.667h-80v266.667h80zM426.667 341.333c29.457 0 53.333-23.876 53.333-53.333s-23.876-53.333-53.333-53.333c-29.455 0-53.333 23.876-53.333 53.333s23.878 53.333 53.333 53.333z" />
<glyph unicode="&#xe90f;" glyph-name="warningOutline" data-tags="warningOutline" d="M512 810.667c200.294 0 362.667-162.371 362.667-362.667s-162.372-362.667-362.667-362.667c-200.295 0-362.667 162.372-362.667 362.667s162.371 362.667 362.667 362.667zM512 874.667c-235.642 0-426.667-191.025-426.667-426.667 0-235.639 191.025-426.667 426.667-426.667 235.639 0 426.667 191.027 426.667 426.667 0 235.642-191.027 426.667-426.667 426.667zM469.333 277.333c0 23.565 19.102 42.667 42.667 42.667s42.667-19.102 42.667-42.667c0-23.565-19.102-42.667-42.667-42.667s-42.667 19.102-42.667 42.667zM480 405.333h64v256h-64v-256z" />
<glyph unicode="&#xe910;" glyph-name="infoFill" data-tags="infoFill" d="M512 21.333c-235.642 0-426.667 191.027-426.667 426.667 0 235.642 191.025 426.667 426.667 426.667 235.639 0 426.667-191.025 426.667-426.667 0-235.639-191.027-426.667-426.667-426.667zM512 554.667c29.457 0 53.333 23.878 53.333 53.333s-23.876 53.333-53.333 53.333c-29.457 0-53.333-23.878-53.333-53.333s23.876-53.333 53.333-53.333zM552 234.667v266.667h-80v-266.667h80z" />
<glyph unicode="&#xe911;" glyph-name="homePhone" data-tags="homePhone" d="M597.333 810.667c58.91 0 106.667-47.756 106.667-106.667v-384c0-58.91-47.757-106.667-106.667-106.667h-170.667c-58.91 0-106.667 47.757-106.667 106.667v384c0 58.91 47.756 106.667 106.667 106.667h170.667zM426.667 874.667c-94.257 0-170.667-76.41-170.667-170.667v-384c0-94.255 76.41-170.667 170.667-170.667h170.667c94.255 0 170.667 76.412 170.667 170.667v384c0 94.257-76.412 170.667-170.667 170.667h-170.667zM554.667 704c0-23.564-19.102-42.667-42.667-42.667s-42.667 19.103-42.667 42.667c0 23.564 19.102 42.667 42.667 42.667s42.667-19.103 42.667-42.667zM341.333 85.333v-64h341.333v64h-341.333z" />
<glyph unicode="&#xe912;" glyph-name="mobility" data-tags="mobility" horiz-adv-x="717" d="M358.4 89.6c28.277 0 51.2 22.922 51.2 51.2s-22.923 51.2-51.2 51.2c-28.277 0-51.2-22.922-51.2-51.2s22.923-51.2 51.2-51.2zM25.6 755.2v-614.4c0-113.106 91.692-204.8 204.8-204.8h256c113.106 0 204.8 91.694 204.8 204.8v614.4c0 113.108-91.694 204.8-204.8 204.8h-256c-113.108 0-204.8-91.692-204.8-204.8zM230.4 883.2h256c70.692 0 128-57.308 128-128v-614.4c0-70.692-57.308-128-128-128h-256c-70.692 0-128 57.308-128 128v614.4c0 70.692 57.308 128 128 128z" />
<glyph unicode="&#xe913;" glyph-name="watch" data-tags="watch" horiz-adv-x="735" d="M379.479 442.001l150.891-83.848-21.631-38.914-150.891 83.826c-14.131 7.854-22.891 22.768-22.891 38.936v167.912h44.522v-167.912zM569.978 798.761c82.258-15.735 144.431-88.025 144.435-174.869v-358.24c0-86.846-62.175-159.134-144.435-174.87v-144.564h-425.544v144.542c-82.261 15.738-144.435 88.046-144.435 174.893v358.24c0.004 86.844 62.175 159.135 144.435 174.869v144.543h425.544v-144.543zM188.956 87.565v-96.826h336.5v96.826h-336.5zM178.087 757.457c-73.763 0-133.561-59.803-133.565-133.565v-358.24c0-73.766 59.799-133.565 133.565-133.565h358.24c73.766 0 133.565 59.799 133.565 133.565v358.24c-0.004 73.761-59.802 133.565-133.565 133.565h-358.24zM188.956 801.978h336.5v96.804h-336.5v-96.804z" />
<glyph unicode="&#xe914;" glyph-name="sim" data-tags="sim" horiz-adv-x="745" d="M0 840.17c0 66.18 52.396 119.83 117.029 119.83h368.44l259.258-258.55v-645.619c0-66.183-52.396-119.831-117.029-119.831h-510.669c-64.633 0-117.029 53.648-117.029 119.831v784.339zM117.029 894.638c-29.379 0-53.195-24.386-53.195-54.468v-784.339c0-30.082 23.816-54.467 53.195-54.467h510.669c29.379 0 53.197 24.385 53.197 54.467v618.038l-221.374 220.768h-342.492zM202.14 491.576v130.722h63.834v-130.722h-63.834zM340.447 491.576v130.722h63.833v-130.722h-63.833zM478.753 491.576v130.722h63.832v-130.722h-63.832zM521.309 360.853c11.753 0 21.276-9.756 21.276-21.788v-174.299c0-12.032-9.523-21.788-21.276-21.788h-297.891c-11.751 0-21.278 9.756-21.278 21.788v174.299c0 12.032 9.526 21.788 21.278 21.788h297.891zM223.418 426.212c-47.006 0-85.112-39.019-85.112-87.147v-174.299c0-48.133 38.106-87.147 85.112-87.147h297.891c47.006 0 85.113 39.014 85.113 87.147v174.299c0 48.128-38.107 87.147-85.113 87.147h-297.891z" />
<glyph unicode="&#xe915;" glyph-name="esim" data-tags="esim" horiz-adv-x="811" d="M803.548 696.885v-647.104l-0.126-5.124c-2.581-50.901-43.392-91.708-94.291-94.293l-5.126-0.145-602.457 0.145c-50.907 2.579-91.731 43.386-94.313 94.293l-0.125 5.124v796.437c0 53.267 41.833 96.774 94.438 99.438l5.125 0.125h415.792l281.084-248.896zM106.672 903.115c-31.419 0-56.896-25.477-56.896-56.896v-796.437c0-31.42 25.477-56.896 56.896-56.896h597.332c31.418 0.004 56.877 25.478 56.877 56.896v627.917l-254.583 225.417h-399.626zM407.401 597.323c22.75 0 44.134-3.407 62.75-10.229l0.021-0.021c18.613-7.507 34.485-17.054 47.584-30.020 13.097-12.966 24.124-28.676 31.708-46.417l0.021-0.019c7.58-18.426 12.412-38.227 13.792-60.064 0-0.13 0.032-1.51 0.687-4.105 0-2.724 0-6.138 0.687-9.54 0-4.094-0.002-8.215 0.687-11.625v-9.542h-266.208c2.071-34.127 13.109-61.444 33.105-82.605 18.75-19.834 44.779-30.679 79.209-31.957l6.999-0.126c18.709 0 36.367 2.089 52.499 6.729l6.814 2.146c17.926 6.144 35.866 15.006 53.103 27.292l22.75-38.895c-21.374-15.017-42.061-25.939-63.437-32.083-21.378-6.827-46.914-10.251-75.187-10.251-26.889 0.002-51.023 4.109-71.708 12.979-18.703 7.763-34.251 17.621-47.543 30.020l-5.562 5.481c-14.477 15.014-25.519 32.762-33.105 53.916l-0.019 0.021c-7.582 21.154-11.708 43.686-11.71 68.25 0 23.889 4.147 45.737 11.729 66.897 7.586 21.161 18.624 38.923 33.105 54.624 12.672 13.139 27.458 24.186 44.354 32.687l7.354 3.479c19.998 8.875 41.387 12.979 65.521 12.979zM407.401 553.636c-14.479-0.002-28.277-2.722-40-7.501v-0.021c-11.718-4.777-22.746-11.603-31.708-19.791-8.962-8.873-16.565-18.421-22.771-30.020v-0.021c-6.204-11.603-10.349-24.576-12.416-37.542h208.292c-4.139 27.985-14.498 50.524-30.355 68.271-16.55 17.747-40.011 26.624-71.042 26.626zM478.692 527.26l-0.207-0.228 12.478 11.187-12.271-10.959z" />
<glyph unicode="&#xe916;" glyph-name="phoneTransfer" data-tags="phoneTransfer" d="M203.145 832c-64.8 0-117.331-52.529-117.333-117.329l-0.015-448.017c-0.002-64.806 52.53-117.338 117.333-117.338h182.532c46.427 0 84.064 37.636 84.064 84.062h-63.999c0-11.081-8.983-20.062-20.064-20.062h-182.532c-29.456 0-53.334 23.876-53.333 53.333l0.015 448.019c0.001 29.455 23.879 53.332 53.333 53.332h149.269c29.455 0 53.333-23.878 53.333-53.333v-54.101h64v54.101c0 64.801-52.532 117.333-117.333 117.333h-149.269zM640.9 746.667c-47.962 0-86.848-38.883-86.848-86.848h64c0 12.619 10.231 22.848 22.848 22.848h180.753c29.457 0 53.333-23.878 53.333-53.333v-452.838c0-29.453-23.876-53.333-53.333-53.333h-150.268c-29.453 0-53.333 23.881-53.333 53.333v57.323h-64v-57.323c0-64.802 52.535-117.333 117.333-117.333h150.268c64.802 0 117.333 52.531 117.333 117.333v452.838c0 64.801-52.531 117.333-117.333 117.333h-180.753zM511.996 639.776l138.982-138.984c29.163-29.158 29.163-76.433 0-105.591l-138.982-138.982-45.252 45.252 114.517 114.522-240.173 0.009 0.003 64 240.183-0.009-114.53 114.529 45.252 45.255z" />
<glyph unicode="&#xe917;" glyph-name="simTransfer" data-tags="simTransfer" d="M42.245 714.416c0 64.801 52.532 117.334 117.333 117.334h187l108.261-110.458-45.706-44.798-89.442 91.256h-160.113c-29.455 0-53.333-23.878-53.333-53.334l0.002-362.472c0-29.457 23.878-53.333 53.333-53.333h265.83v-64h-265.83c-64.801 0-117.333 52.531-117.333 117.333l-0.002 362.472zM534.626 641.294l-22.626 22.627-45.252-45.255 118.421-118.425-244.295 0.009-0.002-64 236.502-0.009-110.626-110.626 45.252-45.252 138.982 138.982c29.158 29.158 29.158 76.433 0 105.591l-116.356 116.357zM714.462 661.197h-32v-64h118.605l116.988-119.582 0.004-296.858c0-29.453-23.881-53.333-53.333-53.333h-193.839c-29.453 0-53.333 23.881-53.333 53.333v54.089l-64-0.004v-54.084c0-64.802 52.535-117.333 117.333-117.333h193.839c64.798 0 117.333 52.531 117.333 117.333l-0.004 309.909v13.047l-154.069 157.483h-113.523z" />
<glyph unicode="&#xe918;" glyph-name="shareWiFi" data-tags="shareWiFi" d="M85.333 714.667c0 64.801 52.532 117.333 117.333 117.333h170.667c64.802 0 117.333-52.532 117.333-117.333v-47.005h-64v47.005c0 29.455-23.878 53.333-53.333 53.333h-170.667c-29.455 0-53.333-23.878-53.333-53.333v-535.138c0-29.453 23.878-53.333 53.333-53.333h170.667c29.455 0 53.333 23.881 53.333 53.333v47.006h64v-47.006c0-64.802-52.531-117.333-117.333-117.333h-170.667c-64.801 0-117.333 52.531-117.333 117.333v535.138zM328.161 495.646c51.014 45.165 116.87 69.97 185 69.685 68.134-0.285 133.777-25.641 184.41-71.234l42.825 47.563c-62.315 56.111-143.108 87.319-226.965 87.67s-164.907-30.179-227.693-85.766l42.424-47.919zM512.627 437.333c-36.689 0.154-72.149-13.205-99.617-37.525l-42.425 47.919c39.241 34.743 89.899 53.824 142.307 53.606 52.412-0.222 102.908-19.725 141.858-54.797l-42.825-47.561c-27.264 24.55-62.613 38.204-99.298 38.357zM554.667 330.667c0-23.565-19.102-42.667-42.667-42.667s-42.667 19.102-42.667 42.667c0 23.565 19.102 42.667 42.667 42.667s42.667-19.102 42.667-42.667zM821.333 832c64.802 0 117.333-52.532 117.333-117.333v-535.138c0-64.802-52.531-117.333-117.333-117.333h-170.667c-64.802 0-117.333 52.531-117.333 117.333v47.006h64v-47.006c0-29.453 23.876-53.333 53.333-53.333h170.667c29.457 0 53.333 23.881 53.333 53.333v535.138c0 29.455-23.876 53.333-53.333 53.333h-170.667c-29.457 0-53.333-23.878-53.333-53.333v-47.005h-64v47.005c0 64.801 52.531 117.333 117.333 117.333h170.667z" />
<glyph unicode="&#xe919;" glyph-name="wifiDevice" data-tags="wifiDevice" d="M544 416c0-17.674-14.326-32-32-32s-32 14.326-32 32c0 17.674 14.326 32 32 32s32-14.326 32-32zM512.47 496c-27.517 0.115-54.112-9.904-74.714-28.144l-31.818 35.939c29.43 26.058 67.424 40.368 106.73 40.205 39.309-0.166 77.181-14.794 106.394-41.098l-32.118-35.67c-20.448 18.413-46.96 28.653-74.474 28.768zM512.87 591.997c-51.098 0.214-100.49-18.387-138.749-52.262l-31.818 35.939c47.088 41.69 107.875 64.588 170.768 64.323 62.893-0.262 123.488-23.667 170.224-65.75l-32.115-35.674c-37.978 34.195-87.21 53.213-138.31 53.424zM672 832c44.182 0 80-35.817 80-80v-480c0-44.182-35.818-80-80-80h-320c-44.183 0-80 35.818-80 80v480c0 44.183 35.817 80 80 80h320zM352 880c-70.692 0-128-57.308-128-128v-480c0-70.691 57.308-128 128-128h320c70.691 0 128 57.309 128 128v480c0 70.692-57.309 128-128 128h-320zM768 32h-512v48h512v-48z" />
<glyph unicode="&#xe91a;" glyph-name="fibetv" data-tags="fibetv" d="M855.165 903.848c62.853-3.183 112.836-55.153 112.836-118.803v-674.088l-0.153-6.121c-3.183-62.853-55.154-112.836-118.804-112.836h-674.088c-65.695 0-118.956 53.261-118.956 118.956v674.088c0 63.643 49.983 115.62 112.836 118.803l6.12 0.153 680.208-0.153zM174.957 864.351c-43.801 0-79.306-35.505-79.306-79.306v-674.088c0-43.8 35.505-79.306 79.306-79.306h674.088c43.8 0 79.306 35.506 79.306 79.306v674.088c0 43.801-35.506 79.306-79.306 79.306h-674.088zM247.328 233.283c27.371-0.004 49.562-22.196 49.562-49.562s-22.198-49.561-49.562-49.562c-27.376 0-49.562 22.194-49.562 49.562s22.193 49.562 49.562 49.562zM225.567 378.592c116.731-6.191 210.138-100.198 215.395-217.178l-39.614-1.782c-4.339 96.584-81.493 174.225-177.869 179.348l2.089 39.612zM235.48 527.285c192.684-10.14 347.11-164.105 355.806-355.959l-39.612-1.782c-7.761 171.197-145.692 309.044-318.282 318.129l2.089 39.612z" />
<glyph unicode="&#xe91b;" glyph-name="fibre" data-tags="fibre" d="M512 960c282.769 0 512-229.231 512-512s-229.231-512-512-512c-282.769 0-512 229.231-512 512s229.231 512 512 512zM512 915.478c-258.182 0-467.478-209.297-467.478-467.478s209.297-467.478 467.478-467.478c258.182 0 467.478 209.297 467.478 467.478s-209.297 467.478-467.478 467.478zM358.391 524.782c35.346 0 64-28.654 64-64-0.007-29.554-20.070-54.345-47.304-61.696v-117.5c-0.007-9.214-7.48-16.696-16.696-16.696-9.212 0.004-16.689 7.484-16.696 16.696v117.5c-27.229 7.353-47.298 32.145-47.304 61.696 0 35.344 28.659 63.996 64 64zM665.587 524.782c35.346 0 64-28.654 64-64-0.007-29.556-20.068-54.345-47.304-61.696v-117.5c-0.007-9.214-7.48-16.696-16.696-16.696-9.209 0.007-16.689 7.486-16.696 16.696v117.5c-27.227 7.355-47.298 32.145-47.304 61.696 0 35.341 28.661 63.993 64 64zM512 678.391c35.341-0.004 63.998-28.656 64-64-0.004-29.556-20.073-54.363-47.304-61.718v-271.064c-0.009-9.209-7.484-16.691-16.696-16.696-9.212 0.004-16.687 7.486-16.696 16.696v271.064c-27.236 7.351-47.3 32.158-47.304 61.718 0.002 35.344 28.659 63.996 64 64z" />
<glyph unicode="&#xe91c;" glyph-name="changeChannel" data-tags="changeChannel" d="M256 768c-58.91 0-106.667-47.756-106.667-106.667v-298.667c0-58.91 47.756-106.667 106.667-106.667h512c58.91 0 106.667 47.757 106.667 106.667v298.667c0 58.91-47.757 106.667-106.667 106.667h-512zM85.333 661.333c0 94.257 76.41 170.667 170.667 170.667h512c94.255 0 170.667-76.41 170.667-170.667v-298.667c0-94.255-76.412-170.667-170.667-170.667h-512c-94.257 0-170.667 76.412-170.667 170.667v298.667zM425.373 692.175l-70.249-70.249c-33.598-33.598-9.802-91.047 37.713-91.047h289.83v64.001h-264.079l52.038 52.039-45.254 45.255zM668.877 399.851l-70.251-70.246-45.252 45.252 52.036 52.041h-264.077v64h289.83c47.514 0 71.309-57.446 37.713-91.046zM373.333 128h-32v-64h341.333v64h-309.333z" />
<glyph unicode="&#xe91d;" glyph-name="syncChannel" data-tags="syncChannel" d="M768 768c58.91 0 106.667-47.756 106.667-106.667v-298.667c0-58.91-47.757-106.667-106.667-106.667h-512c-58.91 0-106.667 47.757-106.667 106.667v298.667c0 58.91 47.756 106.667 106.667 106.667h512zM256 832c-94.257 0-170.667-76.41-170.667-170.667v-298.667c0-94.255 76.41-170.667 170.667-170.667h512c94.255 0 170.667 76.412 170.667 170.667v298.667c0 94.257-76.412 170.667-170.667 170.667h-512zM341.333 128h341.333v-64h-341.333v64zM615.381 453.419c-32.964-57.097-105.971-76.659-163.068-43.695s-76.659 105.971-43.695 163.068c32.964 57.096 105.971 76.658 163.067 43.694 21.261-12.276 37.329-30.1 47.411-50.615l-63.607 14.543-14.263-62.389 114.709-26.227c9.856-2.253 20.198 0.286 27.895 6.848 7.693 6.562 11.836 16.375 11.166 26.466-3.913 58.911-36.224 114.995-91.311 146.799-87.706 50.637-199.856 20.587-250.493-67.119s-20.587-199.855 67.119-250.492c87.706-50.637 199.856-20.587 250.493 67.119l-55.424 32z" />
<glyph unicode="&#xe91e;" glyph-name="bundle" data-tags="bundle" d="M96 661.333c0 88.366 71.634 160 160 160h454.097c73.216 0 132.57-59.354 132.57-132.571v-74.128c55.206-14.21 96-64.325 96-123.968v-341.333c0-70.694-57.306-128-128-128h-128c-70.694 0-128 57.306-128 128v10.667h-426.667v64h426.667v64h-298.667c-88.366 0-160 71.633-160 160v213.333zM554.667 352v138.667c0 70.692 57.306 128 128 128h96v70.095c0 37.871-30.699 68.571-68.57 68.571h-454.097c-53.019 0-96-42.981-96-96v-213.333c0-53.018 42.981-96 96-96h298.667zM682.667 554.667c-35.345 0-64-28.655-64-64v-341.333c0-35.345 28.655-64 64-64h128c35.345 0 64 28.655 64 64v341.333c0 35.345-28.655 64-64 64h-128zM746.667 149.333c-23.565 0-42.667 19.102-42.667 42.667s19.102 42.667 42.667 42.667c23.565 0 42.667-19.102 42.667-42.667s-19.102-42.667-42.667-42.667zM512 661.333c0 23.564-19.102 42.667-42.667 42.667s-42.667-19.103-42.667-42.667c0-23.564 19.102-42.667 42.667-42.667s42.667 19.103 42.667 42.667z" />
<glyph unicode="&#xe91f;" glyph-name="Laptop" data-tags="Laptop" d="M256 725.333c-58.91 0-106.667-47.756-106.667-106.667v-256c0-58.91 47.756-106.667 106.667-106.667h512c58.91 0 106.667 47.757 106.667 106.667v256c0 58.91-47.757 106.667-106.667 106.667h-512zM85.333 618.667c0 94.257 76.41 170.667 170.667 170.667h512c94.255 0 170.667-76.41 170.667-170.667v-256c0-94.255-76.412-170.667-170.667-170.667h-512c-94.257 0-170.667 76.412-170.667 170.667v256zM554.667 618.667c0-23.564-19.102-42.667-42.667-42.667s-42.667 19.103-42.667 42.667c0 23.564 19.102 42.667 42.667 42.667s42.667-19.103 42.667-42.667zM85.333 64v64h853.333v-64h-853.333z" />
<glyph unicode="&#xe920;" glyph-name="tv" data-tags="tv" d="M256 768c-58.91 0-106.667-47.756-106.667-106.667v-298.667c0-58.91 47.756-106.667 106.667-106.667h512c58.91 0 106.667 47.757 106.667 106.667v298.667c0 58.91-47.757 106.667-106.667 106.667h-512zM85.333 661.333c0 94.257 76.41 170.667 170.667 170.667h512c94.255 0 170.667-76.41 170.667-170.667v-298.667c0-94.255-76.412-170.667-170.667-170.667h-512c-94.257 0-170.667 76.412-170.667 170.667v298.667zM373.333 128h-32v-64h341.333v64h-309.333z" />
<glyph unicode="&#xe921;" glyph-name="router" data-tags="router" d="M608.26 780.928c28.467-19.442 50.377-47.048 62.844-79.183 12.471-32.135 14.921-67.293 7.023-100.847s-25.771-63.928-51.264-87.128l43.072-47.334c35.055 31.898 59.631 73.664 70.49 119.799s7.492 94.478-9.655 138.664c-17.148 44.186-47.27 82.144-86.409 108.877s-85.453 40.989-132.847 40.89c-47.398-0.099-93.654-14.547-132.68-41.443s-68.993-64.979-85.956-109.235c-16.963-44.257-20.128-92.613-9.077-138.703s35.799-87.753 70.987-119.506l42.876 47.514c-25.591 23.094-43.59 53.395-51.627 86.915s-5.736 68.688 6.601 100.875c12.337 32.187 34.131 59.884 62.513 79.444 28.381 19.561 62.023 30.068 96.494 30.14s68.151-10.296 96.614-29.738zM256 341.333c-58.91 0-106.667-47.757-106.667-106.667v-42.667c0-58.91 47.756-106.667 106.667-106.667h512c58.91 0 106.667 47.757 106.667 106.667v42.667c0 58.91-47.757 106.667-106.667 106.667h-512zM85.333 234.667c0 94.255 76.41 170.667 170.667 170.667h223.932v256h64v-256h224.068c94.255 0 170.667-76.412 170.667-170.667v-42.667c0-94.255-76.412-170.667-170.667-170.667h-512c-94.257 0-170.667 76.412-170.667 170.667v42.667zM256 149.333c-23.564 0-42.667 19.102-42.667 42.667s19.103 42.667 42.667 42.667c23.564 0 42.667-19.102 42.667-42.667s-19.103-42.667-42.667-42.667z" />
<glyph unicode="&#xe922;" glyph-name="wifiDevice-24" data-tags="wifiDevice-24" d="M768 810.667c58.91 0 106.667-47.756 106.667-106.667v-384c0-58.91-47.757-106.667-106.667-106.667h-512c-58.91 0-106.667 47.757-106.667 106.667v384c0 58.91 47.756 106.667 106.667 106.667h512zM256 874.667c-94.257 0-170.667-76.41-170.667-170.667v-384c0-94.255 76.41-170.667 170.667-170.667h512c94.255 0 170.667 76.412 170.667 170.667v384c0 94.257-76.412 170.667-170.667 170.667h-512zM554.667 362.667c0-23.565-19.102-42.667-42.667-42.667s-42.667 19.102-42.667 42.667c0 23.565 19.102 42.667 42.667 42.667s42.667-19.102 42.667-42.667zM413.010 431.808c27.468 24.32 62.928 37.679 99.617 37.525 36.685-0.154 72.034-13.807 99.298-38.357l42.825 47.561c-38.95 35.072-89.446 54.575-141.858 54.797-52.407 0.218-103.065-18.863-142.307-53.606l42.425-47.919zM513.161 597.331c-68.13 0.285-133.986-24.52-185-69.685l-42.424 47.919c62.786 55.587 143.836 86.117 227.693 85.766s164.651-31.559 226.965-87.67l-42.825-47.563c-50.633 45.592-116.275 70.948-184.41 71.234zM85.333 85.333v-64h853.333v64h-853.333z" />
<glyph unicode="&#xe923;" glyph-name="wifiManager" data-tags="wifiManager" d="M832 656.081c0 49.768-33.156 87.908-76.002 94.043-65.199 9.336-150.477 17.876-243.998 17.876-93.519 0-178.801-8.539-243.996-17.876-42.846-6.135-76.004-44.275-76.004-94.043v-416.162c0-49.766 33.158-87.906 76.003-94.042 65.196-9.34 150.477-17.877 243.997-17.877s178.799 8.538 243.998 17.877c42.846 6.135 76.002 44.275 76.002 94.042v416.162zM128 656.081c0 78.313 53.409 146.295 130.931 157.397 67.397 9.651 155.798 18.522 253.069 18.522s185.673-8.87 253.069-18.522c77.521-11.102 130.931-79.084 130.931-157.397v-416.162c0-78.315-53.41-146.295-130.931-157.397-67.396-9.651-155.797-18.522-253.069-18.522s-185.672 8.87-253.069 18.522c-77.522 11.102-130.931 79.083-130.931 157.397v416.162zM512 277.333c23.565 0 42.667 19.102 42.667 42.667s-19.102 42.667-42.667 42.667c-23.565 0-42.667-19.102-42.667-42.667s19.102-42.667 42.667-42.667zM512.627 426.667c-36.689 0.154-72.149-13.205-99.617-37.525l-42.425 47.919c39.241 34.743 89.899 53.824 142.307 53.606 52.412-0.222 102.908-19.725 141.858-54.797l-42.825-47.561c-27.264 24.55-62.613 38.204-99.298 38.357zM328.161 484.979c51.014 45.167 116.87 69.971 185 69.685 68.134-0.285 133.777-25.641 184.41-71.234l42.825 47.565c-62.315 56.11-143.108 87.317-226.965 87.669s-164.907-30.179-227.693-85.766l42.424-47.919z" />
<glyph unicode="&#xe924;" glyph-name="dataManager" data-tags="dataManager" d="M832 656.081c0 49.768-33.156 87.908-76.002 94.043-65.199 9.336-150.477 17.876-243.998 17.876-93.519 0-178.801-8.539-243.996-17.876-42.846-6.135-76.004-44.275-76.004-94.043v-416.162c0-49.766 33.158-87.906 76.003-94.042 65.196-9.34 150.477-17.877 243.997-17.877s178.799 8.538 243.998 17.877c42.846 6.135 76.002 44.275 76.002 94.042v416.162zM128 656.081c0 78.313 53.409 146.295 130.931 157.397 67.397 9.651 155.798 18.522 253.069 18.522s185.673-8.87 253.069-18.522c77.521-11.102 130.931-79.084 130.931-157.397v-416.162c0-78.315-53.41-146.295-130.931-157.397-67.396-9.651-155.797-18.522-253.069-18.522s-185.672 8.87-253.069 18.522c-77.522 11.102-130.931 79.083-130.931 157.397v416.162zM416 415.616v32h-64v-170.048h64v138.048zM544 618.415v-341.862h-64v341.862h64zM672 501.269v32h-64v-256.209h64v224.209z" />
<glyph unicode="&#xe925;" glyph-name="wifiPod" data-tags="wifiPod" d="M859.597 509.367c20.092-37.884 20.092-84.851 0-122.735l-128.324-241.954c-20.284-38.234-56.486-59.345-93.094-59.345h-252.355c-36.608 0-72.814 21.111-93.094 59.345l-128.326 241.954c-20.093 37.884-20.093 84.851 0 122.735l128.326 241.952c20.28 38.236 56.486 59.347 93.094 59.347h252.355c36.608 0 72.815-21.111 93.094-59.347l128.324-241.952zM916.134 356.646c30.042 56.636 30.042 126.071 0 182.709l-128.324 241.951c-30.609 57.715-87.74 93.36-149.632 93.36h-252.355c-61.893 0-119.023-35.645-149.633-93.359l-128.326-241.951c-30.041-56.638-30.041-126.074 0-182.714l128.326-241.95c30.611-57.715 87.741-93.359 149.633-93.359h252.355c61.892 0 119.023 35.644 149.632 93.359l128.324 241.954zM512 234.667c-23.565 0-42.667 19.102-42.667 42.667s19.102 42.667 42.667 42.667c23.565 0 42.667-19.102 42.667-42.667s-19.102-42.667-42.667-42.667zM511.373 384c36.689 0.154 72.149-13.205 99.618-37.525l42.423 47.919c-39.241 34.743-89.899 53.824-142.306 53.606-52.412-0.222-102.907-19.725-141.856-54.797l42.824-47.561c27.262 24.55 62.612 38.204 99.296 38.357zM695.838 442.313c-51.012 45.167-116.868 69.969-184.998 69.683-68.134-0.282-133.778-25.638-184.412-71.232l-42.825 47.565c62.318 56.11 143.11 87.317 226.967 87.668s164.907-30.179 227.691-85.766l-42.423-47.919z" />
<glyph unicode="&#xe926;" glyph-name="channel" data-tags="channel" d="M656.887 462.219l-219.813 137.387c-11.168 6.977-25.648-1.051-25.648-14.22v-274.757c0-13.169 14.479-21.186 25.648-14.22l219.813 137.387c10.499 6.559 10.499 21.857 0 28.433zM76.178 649.149v-402.297c0-74.068 60.032-134.101 134.099-134.101h603.447c74.068 0 134.098 60.033 134.098 134.101v402.297c0 74.067-60.030 134.099-134.098 134.099h-603.447c-74.067 0-134.099-60.032-134.099-134.099zM210.277 732.961h603.447c46.285 0 83.813-37.527 83.813-83.812v-402.297c0-46.285-37.527-83.813-83.813-83.813h-603.447c-46.285 0-83.812 37.527-83.812 83.813v402.297c0 46.285 37.527 83.812 83.812 83.812z" />
<glyph unicode="&#xe927;" glyph-name="connectedThings" data-tags="connectedThings" d="M173.916 711.726l-43.718 46.741c99.697 93.249 235.699 147.616 382.865 140.343 130.057-6.428 246.724-59.912 334.225-143.119l-44.105-46.378c-76.813 73.046-179.102 119.932-293.278 125.575-129.158 6.383-248.424-41.26-335.989-123.162zM756.715 430.46c0 141.383-114.615 255.998-256 255.998-141.383 0-255.998-114.615-255.998-255.998 0-141.389 114.615-256 255.998-256 141.385 0 256 114.611 256 256zM820.715 430.46c0-176.734-143.266-320-320-320-176.73 0-319.998 143.266-319.998 320 0 176.729 143.269 319.998 319.998 319.998 176.734 0 320-143.269 320-319.998zM510.537 19.388c114.219 4.766 216.862 50.867 294.234 123.319l43.746-46.716c-88.132-82.53-205.21-135.117-335.313-140.548-147.217-6.14-282.796 49.267-381.775 143.279l44.076 46.404c86.934-82.573 205.831-131.127 335.032-125.739zM437.329 597.343h64v-146.331c0-17.83 8.913-34.483 23.753-44.378l90.001-59.998-35.503-53.252-90.001 60.002c-32.64 21.76-52.25 58.394-52.25 97.626v146.331z" />
<glyph unicode="&#xe928;" glyph-name="antenna" data-tags="antenna" d="M223.848 567.358c15.676 37.838 38.646 72.221 67.612 101.187l-38.919 38.919c-34.074-34.074-61.1-74.523-79.541-119.040s-27.93-92.233-27.93-140.417c0-48.188 9.491-95.902 27.93-140.421 18.442-44.515 45.466-84.969 79.542-119.039l38.919 38.921c-28.961 28.961-51.936 63.341-67.612 101.188-15.675 37.836-23.742 78.395-23.742 119.358 0 40.959 8.067 81.513 23.742 119.358zM732.54 668.539c28.961-28.96 51.936-63.343 67.613-101.187 15.673-37.839 23.741-78.399 23.741-119.358 0-40.963-8.068-81.516-23.741-119.358-15.677-37.84-38.647-72.221-67.613-101.188l38.921-38.921c34.074 34.074 61.096 74.524 79.541 119.039 18.44 44.519 27.93 92.233 27.93 140.421s-9.491 95.9-27.93 140.417c-18.444 44.518-45.464 84.971-79.541 119.040l-38.921-38.919zM567.67 353.011c32.56 19.12 54.414 54.499 54.414 94.989 0 60.795-49.284 110.077-110.078 110.077s-110.078-49.287-110.078-110.077c0-40.486 21.854-75.865 54.41-94.989-1.085-1.902-2.086-3.895-3.007-5.974l-101.902-229.277h60.232l40.771 91.733h119.158l40.775-91.733h60.229l-101.9 229.277c-0.921 2.079-1.928 4.067-3.007 5.974zM567.042 448c0-30.399-24.641-55.042-55.042-55.042s-55.042 24.639-55.042 55.042c0 30.395 24.641 55.042 55.042 55.042s55.042-24.641 55.042-55.042zM503.615 324.686c3.227 7.262 13.538 7.262 16.764 0l26.737-60.151h-70.232l26.737 60.151zM654.703 590.701c18.741-18.741 33.602-40.988 43.745-65.475 10.143-24.489 15.363-50.732 15.363-77.232 0-26.504-5.219-52.747-15.363-77.233s-25.007-46.732-43.745-65.474l38.916-38.921c23.856 23.851 42.772 52.169 55.681 83.33 12.906 31.162 19.552 64.56 19.552 98.293 0 33.729-6.647 67.133-19.552 98.292-12.91 31.162-31.826 59.477-55.681 83.328l-38.916-38.919zM325.55 525.232c10.143 24.487 25.007 46.732 43.747 65.475l-38.919 38.919c-23.852-23.852-42.772-52.168-55.677-83.328s-19.552-64.563-19.552-98.292c0-33.733 6.645-67.133 19.552-98.293s31.826-59.479 55.677-83.33l38.919 38.921c-18.741 18.741-33.604 40.987-43.747 65.474s-15.361 50.731-15.361 77.233c0 26.5 5.218 52.743 15.361 77.232z" />
<glyph unicode="&#xe929;" glyph-name="wifi6" data-tags="wifi6" d="M56.001 172.392c102.157 0 184.969-80.762 184.969-180.392h-184.969v180.392zM56.001 404.154c89.751 0 172.969-27.29 241.411-73.825 26.643-34.633 58.909-64.913 95.466-89.56 53.828-69.112 85.726-155.307 85.726-248.776h-110.468c0 168.124-139.745 304.413-312.135 304.413v107.741zM693.138 175.162c17.545-58.067 26.948-119.545 26.948-183.162h-110.463c0 63.356-11.189 124.172-31.748 180.66 15.872-1.83 32.048-2.764 48.441-2.764 22.756 0 45.077 1.796 66.821 5.267zM915.648 286.015c33.071-91.995 51.066-190.959 51.066-294.015h-110.463c0 78.66-11.934 154.601-34.122 226.193 34.428 18.24 65.909 41.134 93.519 67.821zM626.317 904c188.706 0 341.684-149.195 341.684-333.232 0-184.039-152.971-333.229-341.684-333.229-188.7 0-341.679 149.19-341.679 333.229 0 184.036 152.973 333.232 341.679 333.232zM635.437 793.418c-29.145 0-55.243-5.514-78.301-16.549-23.057-11.030-42.627-26.834-58.729-47.41-16.098-20.577-28.384-45.609-36.866-75.098s-12.727-62.9-12.727-100.235c0-70.425 15.119-125.153 45.349-164.19s73.19-58.552 128.872-58.552c24.802 0 47.746 4.132 68.845 12.406s39.477 19.52 55.137 33.727c15.659 14.214 27.844 30.972 36.541 50.274 8.703 19.302 13.046 40.202 13.046 62.685 0 21.214-4.127 40.839-12.396 58.865-8.258 18.034-19.686 33.727-34.256 47.095-14.575 13.367-31.759 23.757-51.551 31.184-19.803 7.426-41.435 11.14-64.924 11.14-30.458 0-53.951-7.211-70.48-21.635 0.868 22.909 7.501 40.621 19.903 53.141s29.257 18.775 50.577 18.775c27.676 0 52.479-9.467 74.414-28.403l6.489-5.961 68.517 77.641c-41.763 40.727-90.916 61.093-147.472 61.093zM623.043 543.953c15.226 0 28.278-5.199 39.149-15.59 10.877-10.397 16.322-23.014 16.322-37.868 0-7.636-1.518-14.958-4.571-21.957-3.048-6.999-7.068-13.15-12.067-18.454-5.010-5.305-10.877-9.548-17.629-12.732-6.74-3.175-13.808-4.771-21.204-4.771-7.39 0-14.458 1.596-21.198 4.771-6.752 3.183-12.618 7.427-17.629 12.732-4.999 5.304-9.026 11.454-12.067 18.454-3.050 6.999-4.566 14.32-4.566 21.957 0 14.849 5.433 27.471 16.305 37.868 10.877 10.397 23.934 15.59 39.155 15.59zM56.001 639.668c56.038 0 110.451-6.767 162.432-19.517-2.106-16.187-3.159-32.668-3.159-49.39 0-21.449 1.73-42.499 5.051-63.036-51.922 15.737-107.115 24.199-164.332 24.199v107.737zM56.001 880.2c92.939 0 182.619-13.578 267.080-38.805-26.248-27.95-48.459-59.511-65.781-93.845-64.283 16.263-131.756 24.913-201.298 24.913v107.737z" />
<glyph unicode="&#xe92a;" glyph-name="connection" data-tags="connection" d="M517.652 959.848c57.965-2.943 104.065-50.869 104.065-109.565l-0.151-5.652c-2.66-52.359-42.020-95.018-92.87-102.782v-130.108c32.915-3.317 62.947-16.362 87.238-36.174l127.588 127.586c-12.295 16.747-19.966 37.105-21.088 59.196l-0.151 5.652c0 60.592 49.125 109.714 109.717 109.717l5.652-0.152c57.965-2.944 104.065-50.869 104.065-109.565l-0.151-5.652c-2.943-57.965-50.871-104.063-109.566-104.065l-5.652 0.151c-22.103 1.122-42.465 8.802-59.218 21.11l-127.564-127.566c19.828-24.296 32.855-54.354 36.174-87.283h130.086c8.041 52.669 53.542 93.019 108.457 93.021l5.652-0.151c57.965-2.945 104.065-50.868 104.065-109.566l-0.151-5.652c-2.945-57.965-50.871-104.063-109.566-104.065l-5.652 0.151c-52.36 2.658-95.018 42.022-102.783 92.87h-130.108c-3.319-32.926-16.368-62.967-36.196-87.26l127.566-127.566c18.172 13.354 40.611 21.239 64.89 21.239l5.652-0.151c57.965-2.943 104.063-50.871 104.065-109.566l-0.151-5.652c-2.845-56.095-47.819-101.064-103.914-103.914l-5.652-0.151c-60.592 0.002-109.717 49.125-109.717 109.717l0.151 5.652c1.122 22.089 8.795 42.447 21.088 59.196l-127.588 127.586c-24.289-19.814-54.325-32.833-87.238-36.152v-130.13c52.671-8.041 93.021-53.537 93.021-108.457l-0.151-5.652c-2.95-57.958-50.875-104.063-109.566-104.065l-5.652 0.154c-56.088 2.847-101.060 47.825-103.914 103.912l-0.151 5.652c0 54.915 40.355 100.412 93.021 108.457v130.13c-32.924 3.319-62.947 16.371-87.238 36.196l-127.61-127.608c13.354-18.174 21.261-40.59 21.261-64.87l-0.151-5.652c-2.943-57.965-50.871-104.063-109.566-104.065l-5.652 0.151c-56.092 2.849-101.065 47.821-103.913 103.914l-0.152 5.652c0 60.592 49.126 109.715 109.717 109.717l5.652-0.151c22.089-1.122 42.447-8.795 59.196-21.088l127.608 127.608c-19.812 24.289-32.877 54.305-36.196 87.218h-130.108c-8.043-52.667-53.52-93.019-108.435-93.021l-5.652 0.151c-56.095 2.845-101.065 47.819-103.913 103.914l-0.152 5.652c0 60.594 49.124 109.717 109.717 109.717l5.652-0.151c52.358-2.66 95.017-42.022 102.782-92.87h130.13c3.317 32.922 16.311 62.989 36.132 87.283l-127.566 127.566c-16.749-12.299-37.101-19.988-59.196-21.11l-5.652-0.151c-60.591 0.002-109.717 49.125-109.717 109.717l0.152 5.652c2.944 57.963 50.871 104.062 109.565 104.065l5.652-0.152c57.965-2.943 104.063-50.87 104.065-109.565l-0.151-5.652c-1.122-22.098-8.809-42.445-21.11-59.196l127.588-127.586c24.291 19.821 54.339 32.857 87.26 36.174v130.13c-50.846 7.766-90.21 50.404-92.87 102.761l-0.151 5.652c0 60.592 49.125 109.714 109.717 109.717l5.652-0.152zM512 110.89c-36.003-0.002-65.195-29.191-65.195-65.195 0.007-35.996 29.197-65.191 65.195-65.195 35.998 0.002 65.189 29.2 65.195 65.195 0 36.005-29.193 65.195-65.195 65.195zM192 193.195c-36.002-0.002-65.196-29.193-65.196-65.195 0.002-36.003 29.194-65.193 65.196-65.195 36.003 0.002 65.193 29.193 65.195 65.195 0 36.005-29.193 65.193-65.195 65.195zM832 193.195c-36-0.002-65.193-29.193-65.195-65.195 0-36.003 29.193-65.193 65.195-65.195 36.003 0.002 65.195 29.191 65.195 65.195-0.002 36.003-29.193 65.193-65.195 65.195zM512 568.044c-66.297-0.004-120.040-53.747-120.044-120.044 0.007-66.295 53.749-120.062 120.044-120.066 66.295 0.004 120.060 53.771 120.066 120.066-0.004 66.297-53.769 120.040-120.066 120.044zM109.717 513.195c-36.005 0-65.196-29.191-65.196-65.195 0.002-36.003 29.192-65.195 65.196-65.195 36.003 0.002 65.194 29.193 65.196 65.195 0 36.005-29.192 65.193-65.196 65.195zM914.283 513.195c-36.003-0.002-65.195-29.193-65.195-65.195 0.002-36.003 29.193-65.193 65.195-65.195 36.003 0.002 65.193 29.193 65.195 65.195 0 36.005-29.193 65.193-65.195 65.195zM192 833.196c-36.001-0.003-65.194-29.194-65.196-65.196 0-36.003 29.193-65.193 65.196-65.195 36.003 0.002 65.195 29.191 65.195 65.195-0.002 36.002-29.193 65.194-65.195 65.196zM832 833.196c-36.003-0.003-65.195-29.193-65.195-65.196 0.002-36.003 29.195-65.193 65.195-65.195 36.003 0.002 65.193 29.193 65.195 65.195 0 36.004-29.193 65.194-65.195 65.196zM512 915.478c-36.003-0.003-65.195-29.193-65.195-65.196 0.002-36.002 29.195-65.193 65.195-65.196 36.003 0.002 65.193 29.193 65.195 65.196 0 36.004-29.193 65.194-65.195 65.196z" />
<glyph unicode="&#xe92b;" glyph-name="datasm" data-tags="datasm" d="M85.333 698.418c0 107.884 191.025 176.248 426.667 176.248 235.639 0 426.667-68.364 426.667-176.248l-0.021-484.68c0.021-4.89 0.021-9.835 0.021-14.827v-1.331c0-107.883-191.023-176.247-426.667-176.247-233.498 0-423.188 85.875-426.618 192.405h-0.049v484.68zM874.662 633.925l0.004 64.496c0 4.758-1.553 13.076-14.042 25.558-13.244 13.237-35.925 27.876-69.841 41.308-67.614 26.776-165.909 43.286-278.784 43.286s-211.169-16.51-278.784-43.286c-33.918-13.432-56.6-28.071-69.843-41.308-12.491-12.485-14.039-20.803-14.039-25.561v-64.496c0.487 0.544 0.482 0.549 0.482 0.549l0.084-0.079 0.848-0.781c0.825-0.751 2.168-1.949 4.021-3.532 3.708-3.167 9.453-7.867 17.18-13.596 15.462-11.464 38.803-27.005 69.589-42.622 61.521-31.209 152.716-62.708 270.463-62.708s208.939 31.499 270.46 62.708c30.788 15.618 54.127 31.159 69.589 42.622 7.727 5.729 13.474 10.429 17.182 13.596 1.852 1.583 3.196 2.781 4.019 3.532l0.934 0.859c0 0-0.004-0.005 0.478-0.546zM149.333 552.311v-335.971l0.013-0.414c0.177-5.487 2.729-15.923 16.956-30.878 14.448-15.185 38.054-31.693 71.752-46.908 67.251-30.366 163.952-50.718 273.946-50.718 112.875 0 211.17 16.508 278.784 43.285 33.92 13.431 56.602 28.070 69.841 41.306 12.493 12.484 14.042 20.804 14.042 25.562v1.327c0 5.026 0 9.809-0.021 14.502l-0.004 0.329 0.009 118.255 0.009 220.319c-16.653-11.412-38.042-24.615-63.979-37.769-68.766-34.884-169.57-69.478-298.679-69.478-129.111 0-229.916 34.594-298.68 69.478-25.941 13.158-47.33 26.361-63.986 37.774z" />
<glyph unicode="&#xe92c;" glyph-name="datalg" data-tags="datalg" d="M538.348 959.761c270.525-4.935 485.652-85.846 485.652-211.261l-0.022-581.608c0.029-5.866 0.022-11.809 0.022-17.804v-1.587l-0.174-6.044c-7.019-125.968-233.481-205.457-511.826-205.457-280.198 0-507.819 103.057-511.935 230.892h-0.065v581.608c0 129.461 229.231 211.5 512 211.5l26.348-0.239zM44.522 169.675l0.043-1.349c1.181-36.679 36.943-83.91 126.261-124.238 85.501-38.605 205.948-63.566 341.174-63.566 137.815 0 259.829 20.079 345.651 54.065 89.941 35.617 121.827 78.035 121.827 112.914v1.587c0 6.013 0.007 11.847-0.022 17.586v173.739c-22.141-12.929-54.379-29.814-96.216-46.63-85.359-34.308-210.615-68.392-371.24-68.392s-285.881 34.084-371.239 68.392c-41.854 16.823-74.097 33.721-96.239 46.652v-170.761zM44.522 392.849c4.995-3.335 12.085-7.916 21.261-13.305 20.461-12.019 51.172-28.213 91.587-44.457 80.802-32.474 200.423-65.173 354.63-65.173s273.829 32.699 354.631 65.173c40.415 16.244 71.126 32.439 91.586 44.457 9.16 5.38 16.246 9.951 21.239 13.283v236.978c-22.141-12.929-54.379-29.814-96.216-46.63-85.359-34.308-210.615-68.392-371.24-68.392s-285.881 34.084-371.239 68.392c-41.854 16.823-74.096 33.721-96.239 46.652v-236.978zM512 915.478c-137.815 0-259.829-20.078-345.652-54.065-89.939-35.617-121.826-78.036-121.826-112.913v-66.26c4.995-3.335 12.085-7.916 21.261-13.305 20.461-12.019 51.172-28.213 91.587-44.457 80.802-32.474 200.423-65.173 354.63-65.173s273.829 32.699 354.631 65.173c40.415 16.244 71.126 32.439 91.586 44.457 9.167 5.385 16.246 9.971 21.239 13.305l0.022 66.26c0 34.877-31.886 77.296-121.827 112.913-85.822 33.987-207.836 54.065-345.651 54.065z" />
<glyph unicode="&#xe92d;" glyph-name="smartHome" data-tags="smartHome" d="M512 917.333l469.333-341.333v-426.667c0-94.255-76.412-170.667-170.667-170.667h-597.333c-94.257 0-170.667 76.412-170.667 170.667v426.667l469.333 341.333zM917.333 543.409l-405.333 294.788-405.333-294.788v-394.076c0-58.91 47.756-106.667 106.667-106.667h597.333c58.91 0 106.667 47.757 106.667 106.667v394.076zM314.667 406.255c51.799 45.858 118.665 71.044 187.849 70.754 69.18-0.286 135.834-26.035 187.247-72.324l37.683 41.852c-61.692 55.552-141.679 86.447-224.695 86.793-83.018 0.349-163.258-29.875-225.417-84.907l37.333-42.167zM501.965 354.987c-36.898 0.154-72.559-13.278-100.186-37.739l-37.334 42.167c37.986 33.63 87.020 52.1 137.755 51.891 50.735-0.213 99.614-19.093 137.314-53.043l-37.683-41.852c-27.422 24.687-62.972 38.417-99.866 38.575zM548.267 242.347c0-25.92-21.013-46.933-46.933-46.933s-46.933 21.013-46.933 46.933c0 25.92 21.013 46.933 46.933 46.933s46.933-21.013 46.933-46.933z" />
<glyph unicode="&#xe92e;" glyph-name="home" data-tags="home" d="M192 575.145l320 221.667 320-221.667v-340.478c0-58.91-47.757-106.667-106.667-106.667h-426.667c-58.91 0-106.667 47.757-106.667 106.667v340.478zM512 874.667l-384-266v-374c0-94.255 76.41-170.667 170.667-170.667h426.667c94.255 0 170.667 76.412 170.667 170.667v374l-384 266z" />
<glyph unicode="&#xe92f;" glyph-name="homeFill" data-tags="homeFill" d="M128 608.666l384 266 384-266v-374c0-94.255-76.412-170.667-170.667-170.667h-426.667c-94.257 0-170.667 76.412-170.667 170.667v374z" />
<glyph unicode="&#xe930;" glyph-name="activate" data-tags="activate" d="M381.253 685.667l13.542-29c-57.131-26.643-103.486-71.945-131.417-128.457-27.929-56.512-35.783-120.853-22.25-182.417l2.792-11.46c15.078-56.934 47.92-107.716 93.917-144.832 49.061-39.586 110.168-61.278 173.208-61.5l11.793 0.209c58.846 2.3 115.541 23.296 161.792 60.083 49.331 39.241 83.861 94.114 97.83 155.584l2.334 11.584c10.594 57.933 2.479 117.837-23.334 170.999-27.533 56.708-73.553 102.375-130.5 129.415l13.709 28.875 13.751 28.916c70.084-33.281 126.737-89.457 160.623-159.25 31.774-65.44 41.758-139.189 28.71-210.502l-2.918-14.208c-17.186-75.652-59.618-143.198-120.333-191.497-56.926-45.282-126.733-71.13-199.164-73.958l-14.545-0.252c-77.581 0.273-152.745 26.987-213.123 75.708-56.608 45.679-97.063 108.139-115.625 178.21l-3.417 14.123c-16.659 75.78-7.002 154.987 27.375 224.543 34.377 69.551 91.437 125.295 161.75 158.083l13.5-29zM533.338 490.667h-64v341.333h64v-341.333z" />
<glyph unicode="&#xe931;" glyph-name="settings" data-tags="settings" d="M682.667 448c0 94.257-76.412 170.667-170.667 170.667-94.257 0-170.667-76.41-170.667-170.667 0-94.255 76.41-170.667 170.667-170.667 94.255 0 170.667 76.412 170.667 170.667zM618.667 448c0-58.91-47.757-106.667-106.667-106.667s-106.667 47.757-106.667 106.667c0 58.91 47.757 106.667 106.667 106.667s106.667-47.757 106.667-106.667zM624.286 135.539c4.8 23.121 21.636 41.988 42.825 53.807 21.205 11.827 46.396 16.316 69.606 8.751l111.236-36.25c1.924-0.631 4.045 0.141 5.060 1.835l85.082 141.965c1.015 1.698 0.649 3.853-0.879 5.146l-88.218 74.688c-18.398 15.573-26.974 38.929-26.974 62.519s8.576 46.946 26.97 62.519l88.222 74.689c1.527 1.294 1.894 3.446 0.879 5.143l-85.082 141.964c-1.015 1.697-3.136 2.467-5.060 1.839l-111.232-36.251c-23.215-7.565-48.405-3.076-69.611 8.753-21.184 11.816-38.025 30.682-42.825 53.807l-23.023 110.898c-0.397 1.921-2.15 3.305-4.181 3.305h-170.163c-2.032 0-3.783-1.383-4.182-3.305l-23.023-110.9c-4.801-23.124-21.638-41.99-42.822-53.805-21.207-11.828-46.395-16.317-69.608-8.753l-111.235 36.251c-1.927 0.628-4.046-0.142-5.063-1.839l-85.080-141.965c-1.017-1.697-0.649-3.849 0.879-5.143l88.223-74.694c18.393-15.569 26.972-38.925 26.972-62.515s-8.579-46.942-26.972-62.515l-88.223-74.692c-1.527-1.293-1.895-3.447-0.879-5.146l85.080-141.965c1.017-1.694 3.136-2.466 5.063-1.839l111.239 36.254c23.212 7.565 48.398 3.076 69.604-8.751 21.183-11.814 38.019-30.682 42.819-53.803l23.024-110.903c0.399-1.924 2.15-3.307 4.184-3.307h170.159c2.035 0 3.785 1.382 4.186 3.307l23.023 110.899zM462.379 747.452l13.12 63.215h73.003l13.12-63.212c9.549-45.978 41.591-78.441 74.313-96.691 33.207-18.52 76.919-27.949 120.614-13.709l66.044 21.523 34.415-57.421-49.365-41.794c-35.61-30.147-49.617-73.040-49.617-111.363 0-38.319 14.007-81.216 49.617-111.364l49.365-41.792-34.415-57.421-66.044 21.525c-43.695 14.238-87.407 4.809-120.614-13.709-32.721-18.253-64.768-50.714-74.313-96.691l-13.124-63.215h-72.998l-13.124 63.219c-9.545 45.978-41.589 78.438-74.308 96.687-33.204 18.522-76.916 27.947-120.611 13.709l-66.049-21.525-34.412 57.421 49.367 41.796c35.608 30.148 49.618 73.041 49.618 111.36 0 38.323-14.010 81.216-49.617 111.361l-49.367 41.796 34.412 57.421 66.045-21.524c43.696-14.24 87.409-4.812 120.614 13.709 32.72 18.25 64.763 50.711 74.312 96.689z" />
<glyph unicode="&#xe932;" glyph-name="shieldCheckmark" data-tags="shieldCheckmark" d="M863.433 311.040l32.567 435.627-383.991 170.667-384.009-170.667 32.588-435.635c6.308-84.322 53.846-160.090 127.024-202.453l224.397-129.911 224.397 129.907c73.182 42.368 120.721 118.14 127.027 202.466zM704.341 163.964l-192.333-111.347-192.331 111.347c-54.883 31.774-90.537 88.602-95.268 151.842l-29.225 390.684 316.824 140.807 316.809-140.807-29.21-390.679c-4.727-63.245-40.38-120.073-95.266-151.846zM665.446 513.929l19.405 25.449-50.893 38.806-148.992-195.399c-4.203-5.513-12.467-5.615-16.802-0.205l-79.224 98.769-49.925-40.043 79.222-98.773c30.36-37.85 88.199-37.141 117.622 1.446l129.587 169.95z" />
<glyph unicode="&#xe933;" glyph-name="scan" data-tags="scan" d="M215.486 859.313c36.291 5.579 78.827 11.095 125.847 15.354v-64.271c-43.206-4.043-82.417-9.159-116.123-14.34-42.966-6.605-75.877-44.913-75.877-94.427v-82.976h-64v82.976c0 78.036 53.022 145.827 130.153 157.684zM682.667 874.667v-64.271c43.204-4.043 82.419-9.159 116.122-14.34 42.965-6.605 75.878-44.913 75.878-94.427v-82.976h64v82.976c0 78.036-53.022 145.827-130.155 157.684-36.288 5.579-78.827 11.095-125.845 15.354zM798.788 99.942c-33.702-5.18-72.917-10.295-116.122-14.34v-64.269c47.019 4.258 89.557 9.775 125.85 15.356 77.129 11.857 130.15 79.646 130.15 157.683v82.948h-64v-82.948c0-49.515-32.909-87.821-75.878-94.43zM149.333 194.372v82.948h-64v-82.948c0-78.037 53.022-145.826 130.152-157.683 36.292-5.581 78.827-11.098 125.848-15.356v64.269c-43.206 4.045-82.418 9.161-116.123 14.34-42.966 6.609-75.877 44.915-75.877 94.43zM341.333 618.653v-341.332h21.333v341.332h-21.333zM448 618.653h-64v-341.332h64v341.332zM490.667 618.653h-21.333v-341.332h21.333v341.332zM554.667 618.653h-42.667v-341.332h42.667v341.332zM597.333 618.653h-21.333v-341.332h21.333v341.332zM682.667 618.653h-64v-341.332h64v341.332z" />
<glyph unicode="&#xe934;" glyph-name="heart" data-tags="heart" d="M512 620.735l-133.627 114.351c-59.184 50.647-144.907 42.354-194.81-21.703-49.033-62.94-44.783-156.438 8.853-213.812l319.584-341.854 319.586 341.854c53.636 57.374 57.886 150.872 8.849 213.812-49.903 64.057-135.625 72.35-194.807 21.703l-133.628-114.351zM555.806 110.857l-43.806-46.857-366.336 391.863c-75.329 80.581-80.788 209.308-12.588 296.852 71.798 92.162 199.332 105.94 286.909 30.997l92.015-78.742 92.015 78.742c87.578 74.944 215.113 61.165 286.908-30.997 68.203-87.543 62.741-216.271-12.587-296.852l-322.53-345.007z" />
<glyph unicode="&#xe935;" glyph-name="cloud" data-tags="cloud" d="M234.45 555.916c34.502 160.733 181.336 240.267 315.853 226.563 69.613-7.098 136.873-39.135 184.287-98.321 44.414-55.425 70.159-133.102 65.859-232.82 59.266-2.502 104.766-20.806 136.213-49.501 35.15-32.091 50.881-75.485 49.622-118.573-2.499-86.066-72.582-171.256-189.25-171.253h-510.679c-83.389 0-145.963 25.642-187.748 66.607-41.655 40.844-60.959 95.233-60.96 149.535-0.001 103.842 71.083 211.108 196.79 227.781zM546.291 743.155c-121.146 12.346-251.217-61.633-275.66-208.644l-2.541-15.351-15.535-1.114c-111.319-7.972-175.357-99.303-175.357-189.898 0.001-45.002 15.927-88.786 49.106-121.314 33.057-32.402 84.981-55.292 160.069-55.292h510.679c94.645-0.003 147.84 67.548 149.747 132.864 0.945 32.61-10.844 64.573-36.77 88.247-25.942 23.679-67.928 40.709-130.174 39.43l-21.929-0.441 1.827 21.852c8.463 101.872-15.989 176.005-55.997 225.935-40.088 50.038-97.207 77.593-157.463 83.725z" />
<glyph unicode="&#xe936;" glyph-name="billing" data-tags="billing" d="M298.667 874.667c-70.692 0-128-57.308-128-128v-725.333h554.667c70.694 0 128 57.306 128 128v725.333h-554.667zM298.667 810.667h490.667v-661.333c0-35.345-28.655-64-64-64h-490.667v661.333c0 35.346 28.654 64 64 64zM452.924 608c-26.035 0-51.433-9.581-70.511-27.296-19.158-17.789-30.413-42.446-30.413-68.704s11.255-50.914 30.413-68.706c19.078-17.711 44.476-27.294 70.511-27.294h118.153c10.526 0 20.19-3.904 26.961-10.193 6.694-6.217 9.963-14.118 9.963-21.807s-3.268-15.59-9.963-21.807c-6.771-6.289-16.435-10.193-26.961-10.193h-189.043v-64h97.967v-53.333h64v53.333h27.076c26.035 0 51.435 9.579 70.511 27.294 19.157 17.792 30.413 42.449 30.413 68.706s-11.255 50.914-30.413 68.706c-19.076 17.715-44.476 27.294-70.511 27.294h-118.153c-10.526 0-20.19 3.904-26.962 10.193-6.694 6.217-9.961 14.118-9.961 21.807s3.268 15.59 9.961 21.806c6.772 6.289 16.436 10.194 26.962 10.194h189.043v64h-97.967v53.333h-64v-53.333h-27.076z" />
<glyph unicode="&#xe937;" glyph-name="billingAutopay" data-tags="billingAutopay" d="M84.739 757.333c0 88.366 71.635 160 160 160h522.668v-468.582h-64v404.582h-458.668c-53.019 0-96-42.981-96-96v-629.333h319.194v-64h-383.194v693.333zM285.819 634.038c19.078 17.715 44.478 27.296 70.511 27.296h27.077v53.333h64.001v-53.333h97.967v-64h-189.044c-10.526 0-20.188-3.905-26.961-10.194-6.694-6.216-9.962-14.116-9.962-21.806s3.268-15.59 9.962-21.805c6.773-6.29 16.435-10.195 26.961-10.195h118.154c26.031 0 51.435-9.583 70.511-27.294 19.157-17.792 30.413-42.449 30.413-68.706s-11.255-50.914-30.413-68.706c-19.076-17.715-44.48-27.294-70.511-27.294h-27.076v-53.333h-64.001v53.333h-97.967v64h189.044c10.526 0 20.19 3.904 26.961 10.193 6.694 6.217 9.963 14.118 9.963 21.807s-3.268 15.59-9.963 21.807c-6.771 6.289-16.435 10.193-26.961 10.193h-118.154c-26.033 0-51.433 9.583-70.511 27.294-19.158 17.792-30.413 42.448-30.413 68.706s11.255 50.915 30.413 68.704zM857.028 110.468c-38.293-66.321-123.102-89.045-189.423-50.756-66.325 38.293-89.050 123.102-50.756 189.423 38.293 66.325 123.098 89.045 189.423 50.756 27.294-15.761 47.219-39.394 58.534-66.411l-79.744 18.231-14.268-62.387 129.331-29.568c9.86-2.257 20.203 0.282 27.895 6.844 7.697 6.566 11.836 16.38 11.166 26.47-4.322 65.118-40.038 127.095-100.915 162.244-96.934 55.966-220.885 22.754-276.847-74.18-55.966-96.934-22.754-220.881 74.18-276.847s220.881-22.754 276.847 74.18l-55.424 32z" />
<glyph unicode="&#xe938;" glyph-name="billingHistory" data-tags="billingHistory" horiz-adv-x="977" d="M743.908 190.362l60.956-56.45-47.411-51.228-25.633 23.682-57.73 53.453v123.453h69.818v-92.909zM714.91 401.771c128.526 0 232.713-104.201 232.727-232.727 0-128.531-104.197-232.727-232.727-232.727s-232.727 104.197-232.727 232.727c0.009 128.526 104.201 232.727 232.727 232.727zM714.91 331.953c-89.968 0-162.9-72.946-162.909-162.909 0-89.972 72.937-162.909 162.909-162.909s162.909 72.937 162.909 162.909c-0.014 89.963-72.946 162.909-162.909 162.909zM744.727 472.32h-69.818v417.862h-500.364c-57.839 0-104.727-46.888-104.727-104.727v-686.545h348.727v-69.818h-418.546v756.364c0 96.399 78.147 174.545 174.545 174.545h570.182v-487.68zM407.273 669.091h106.864v-69.818h-206.228c-11.48-0.002-22.021-4.276-29.409-11.136-7.296-6.779-10.864-15.387-10.864-23.773s3.568-16.994 10.864-23.773c7.388-6.86 17.928-11.135 29.409-11.136h128.909c28.395-0.002 56.098-10.452 76.908-29.773 20.899-19.407 33.182-46.31 33.182-74.954s-12.283-55.547-33.182-74.957c-20.81-19.321-48.514-29.77-76.908-29.77h-29.546v-58.182h-69.818v58.182h-106.864v69.818h206.228c11.48 0 22.021 4.278 29.409 11.138 7.294 6.777 10.864 15.388 10.864 23.771s-3.57 16.994-10.864 23.771c-7.388 6.861-17.928 11.138-29.409 11.138h-128.909c-28.395 0-56.099 10.449-76.909 29.77-20.899 19.409-33.182 46.311-33.182 74.957s12.282 55.548 33.182 74.954c20.81 19.321 48.514 29.771 76.909 29.773h29.546v58.182h69.818v-58.182z" />
<glyph unicode="&#xe939;" glyph-name="calendar" data-tags="calendar" d="M373.333 826.667v-74.667h277.333v74.667h64v-74.667h53.333c70.694 0 128-57.308 128-128v-426.667c0-70.694-57.306-128-128-128h-640v554.667c0 70.692 57.308 128 128 128h53.333v74.667h64zM650.667 688h-277.333v-53.333h-64v53.333h-53.333c-35.346 0-64-28.654-64-64v-96h640v96c0 35.346-28.655 64-64 64h-53.333v-53.333h-64v53.333zM192 464v-330.667h576c35.345 0 64 28.655 64 64v266.667h-640z" />
<glyph unicode="&#xe93a;" glyph-name="cart" data-tags="cart" d="M216.861 736h-78.195v64h78.195c31.87 0 61.085-17.76 75.755-46.053l17.602-33.947h473.406c68.809 0 109.321-77.26 70.191-133.861l-92.181-133.335c-15.936-23.049-42.172-36.804-70.191-36.804h-259.452l-43.236-62.537c-9.783-14.148 0.345-33.463 17.548-33.463h451.377v-64h-451.377c-68.81 0-109.323 77.261-70.192 133.862l41.827 60.497-142.139 274.127c-3.668 7.073-10.971 11.513-18.939 11.513zM434.662 480h256.781c7.002 0 13.564 3.439 17.545 9.203l92.181 133.332c9.783 14.15-0.346 33.465-17.545 33.465h-440.221l91.258-176zM458.667 128c0-44.181-35.817-80-80-80s-80 35.819-80 80c0 44.181 35.817 80 80 80s80-35.819 80-80zM805.333 48c44.181 0 80 35.819 80 80s-35.819 80-80 80c-44.181 0-80-35.819-80-80s35.819-80 80-80z" />
<glyph unicode="&#xe93b;" glyph-name="box" data-tags="box" horiz-adv-x="896" d="M884.322 686.703v-405.271l-0.102-5.707c-1.961-58.765-34.080-112.572-85.231-142.106l-270.645-156.145c-50.195-26.79-110.492-26.788-160.687 0l-5.001 2.771-265.646 153.374c-52.803 30.487-85.333 86.842-85.333 147.812v405.271l436.312 251.917 436.333-251.917zM463.426 400.35v-410.022c18.694 2.093 37.067 7.93 53.897 17.647l265.666 153.374c42.897 24.772 69.333 70.547 69.333 120.083v360.209l-388.896-241.291zM43.677 281.431c0-49.538 26.433-95.311 69.333-120.083l265.646-153.374c16.495-9.523 34.466-15.341 52.77-17.542v410.75l-387.749 246.001v-365.751zM57.552 676.267l390.542-247.793 171.708 106.562-391.313 239.938-170.937-98.707zM260.032 793.182l390.187-239.271 192.875 119.667-395.104 228.104-187.957-108.5z" />
<glyph unicode="&#xe93c;" glyph-name="contact" data-tags="contact" d="M727.62 112.252c-27.597 0.277-62.302 7.616-101.38 22.327-78.025 29.372-167.765 85.99-243.015 161.242-75.249 75.247-131.868 164.988-161.241 243.014-14.711 39.078-22.047 73.785-22.327 101.38-0.284 27.999 6.611 44.498 15.306 53.193l76.95 76.951c20.828 20.828 54.597 20.828 75.425 0l58.181-58.181c20.826-20.828 20.826-54.597 0-75.424l-70.946-70.946 2.057-15.643 31.727 4.172c-31.727-4.172-31.725-4.186-31.723-4.2l0.004-0.030 0.030-0.22 0.056-0.395 0.174-1.134c0.145-0.906 0.352-2.11 0.636-3.593 0.567-2.965 1.443-7.048 2.753-12.097 2.619-10.095 6.981-24.073 14.095-40.691 14.248-33.284 39.505-77.073 83.717-121.284s88-69.47 121.284-83.716c16.619-7.113 30.596-11.477 40.691-14.093 5.047-1.31 9.131-2.189 12.096-2.756 1.481-0.282 2.688-0.491 3.593-0.636l1.135-0.175 0.393-0.055 0.154-0.021 0.098-0.013c0.013 0 0.030-0.004 4.198 31.723l-4.169-31.727 15.642-2.057 70.946 70.946c20.826 20.83 54.596 20.83 75.422 0l58.18-58.18c20.83-20.826 20.83-54.596 0-75.426l-76.949-76.949c-8.695-8.695-25.195-15.59-53.193-15.305zM423.479 544.204l47.292 47.294c45.824 45.822 45.824 120.113 0 165.935l-58.179 58.181c-45.821 45.821-120.113 45.821-165.935 0l-76.951-76.951c-25.627-25.627-34.423-62.082-34.048-99.098 0.38-37.42 10.056-79.789 26.428-123.281 32.794-87.108 94.629-184.465 175.883-265.719s178.612-143.087 265.72-175.881c43.49-16.375 85.858-26.048 123.281-26.428 37.013-0.375 73.468 8.418 99.098 34.048l76.949 76.949c45.82 45.82 45.82 120.111 0 165.935l-58.18 58.18c-45.82 45.82-120.115 45.82-165.935 0l-47.296-47.296c-6.98 2.010-16.196 5.099-27.038 9.741-26.731 11.443-63.45 32.371-101.214 70.135-37.769 37.764-58.697 74.483-70.14 101.214-4.638 10.846-7.727 20.058-9.737 27.041z" />
<glyph unicode="&#xe93d;" glyph-name="card" data-tags="card" d="M758.859 283.433c22.729 0 41.139 18.413 41.139 41.139s-18.413 41.139-41.139 41.139c-22.729 0-41.139-18.413-41.139-41.139s18.413-41.139 41.139-41.139zM841.139 160h-658.278c-45.448 0-82.278 36.844-82.278 82.278v411.417c0 45.448 36.844 82.278 82.278 82.278h658.278c45.448 0 82.278-36.844 82.278-82.278v-411.417c0-45.448-36.844-82.278-82.278-82.278zM182.862 221.722h658.278c11.357 0 20.573 9.209 20.573 20.573v288h-699.417v-288c0-11.357 9.206-20.573 20.573-20.573zM162.292 592h699.417v61.719c0 11.357-9.209 20.573-20.573 20.573h-658.278c-11.357 0-20.573-9.206-20.573-20.573v-61.719z" />
<glyph unicode="&#xe93e;" glyph-name="dataNotification" data-tags="dataNotification" d="M544 788.195v86.471h-64v-86.472c-77.841-5.6-135.394-30.878-172.66-53.798-35.851-22.050-51.34-63.394-51.34-105.484v-156.115c0-54.003-25.561-104.823-68.919-137.020l-59.081-43.87v-142.575h229.111c17.583-72.137 78.708-127.667 154.889-127.667s137.306 55.531 154.889 127.667h229.111v142.575l-59.081 43.87c-43.358 32.196-68.919 83.017-68.919 137.020v156.115c0 42.090-15.488 83.434-51.341 105.484-37.265 22.92-94.818 48.198-172.659 53.798zM512 85.666c-37.956 0-72.858 25.318-88.026 63.667h176.052c-15.168-38.349-50.069-63.667-88.026-63.667zM340.869 679.883c33.897 20.848 90.657 45.451 171.131 45.451s137.233-24.603 171.132-45.451c10.556-6.493 20.868-22.452 20.868-50.97v-156.115c0-74.257 35.145-144.132 94.763-188.399l33.237-24.683v-46.383h-640v46.383l33.236 24.683c59.617 44.267 94.764 114.142 94.764 188.399v156.115c0 28.517 10.313 44.477 20.869 50.97zM449.664 458.389v32h-64.001v-128h64.001v96zM544 553.553v-192h-64v192h64zM638.758 490.667v32h-64v-160h64v128z" />
<glyph unicode="&#xe93f;" glyph-name="notification" data-tags="notification" d="M716.659 734.397c35.853-22.050 51.341-63.394 51.341-105.484v-156.115c0-54.003 25.562-104.823 68.919-137.020l59.081-43.87v-142.575h-214.494c-19.55-73.988-88.755-127.689-169.57-127.689-80.811 0-150.016 53.7-169.566 127.689h-214.37v142.575l59.081 43.87c43.358 32.196 68.919 83.017 68.919 137.020v156.115c0 42.090 15.489 83.434 51.34 105.484 37.266 22.92 94.819 48.198 172.66 53.798v86.472h64v-86.471c77.841-5.6 135.394-30.878 172.659-53.798zM613.67 149.333h-203.468c17.032-37.146 55.658-63.689 101.734-63.689 46.080 0 84.706 26.543 101.734 63.689zM512 725.333c-80.474 0-137.234-24.603-171.131-45.451-10.556-6.493-20.869-22.452-20.869-50.97v-156.115c0-74.257-35.146-144.132-94.764-188.399l-33.236-24.683v-46.383h640v46.383l-33.237 24.683c-59.618 44.267-94.763 114.142-94.763 188.399v156.115c0 28.517-10.313 44.477-20.868 50.97-33.899 20.848-90.658 45.451-171.132 45.451z" />
<glyph unicode="&#xe940;" glyph-name="edit" data-tags="edit" d="M650.368 804.885c51.652 51.654 135.398 51.654 187.051 0 51.657-51.653 51.657-135.4 0-187.053l-480.489-480.492-130.924-14.545c-19.323-2.146-38.575 4.604-52.322 18.351-13.748 13.751-20.501 33.003-18.354 52.322l14.547 130.927 480.492 480.49zM231.006 295.014l-12.068-108.612 108.611 12.066 369.581 369.583-96.542 96.544-369.583-369.58zM645.841 709.85l96.546-96.544 49.779 49.78c26.658 26.66 26.658 69.884 0 96.544-26.662 26.66-69.884 26.66-96.546 0l-49.779-49.78z" />
<glyph unicode="&#xe941;" glyph-name="eye" data-tags="eye" d="M512 213.333c-198.039 0-326.491 139.063-394.716 237.726 24.36 39.228 65.199 89.443 121.105 133.217 70.943 55.548 163.041 98.391 273.611 98.391 110.571 0 202.667-42.842 273.613-98.391 55.902-43.774 96.742-93.989 121.105-133.217-68.228-98.662-196.676-237.726-394.718-237.726zM512 149.333c256 0 406.754 199.113 469.333 298.667-46.933 99.555-213.333 298.667-469.333 298.667s-422.4-199.111-469.333-298.667c62.578-99.554 213.333-298.667 469.333-298.667zM618.667 448c0-58.91-47.757-106.667-106.667-106.667s-106.667 47.757-106.667 106.667c0 58.91 47.757 106.667 106.667 106.667s106.667-47.757 106.667-106.667zM682.667 448c0-94.255-76.412-170.667-170.667-170.667-94.257 0-170.667 76.412-170.667 170.667 0 94.257 76.41 170.667 170.667 170.667 94.255 0 170.667-76.41 170.667-170.667z" />
<glyph unicode="&#xe942;" glyph-name="eyehidden" data-tags="eyehidden" d="M295.193 681.939c61.59 32.739 134.244 54.782 216.812 54.782 240.424 0 396.706-186.986 440.781-280.485-37.049-58.944-107.064-154.962-213.955-217.942l117.341-117.341-27.103-27.101-681.195 681.195 27.102 27.102 120.211-120.211zM512.005 698.398c-70.808 0-133.846-17.736-188.335-44.936l60.788-60.79c13.834 12.168 29.392 22.099 46.061 29.461 42.782 18.887 92.916 21.138 139.734 2.233 91.882-37.119 136.292-141.72 99.176-233.603-7.812-19.322-18.632-36.535-31.683-51.356l73.022-73.022c93.296 52.143 158.309 132.783 197.71 191.944-23.089 40.705-65.754 95.818-126.060 143.043-69.524 54.435-160.628 97.040-270.401 97.040zM555.899 588.814c-36.816 14.876-76.208 13.126-109.897-1.755-12.377-5.467-23.971-12.725-34.375-21.537l198.908-198.908c9.539 11.219 17.527 24.071 23.352 38.492 29.195 72.265-5.73 154.519-77.983 183.706zM265.598 619.001c-8.256-5.717-16.269-11.599-23.994-17.643-60.316-47.229-102.991-102.327-126.087-143.043 63.010-94.624 191.473-244.238 396.488-244.238 49.481 0 94.492 8.743 135.218 23.307l29.733-29.733c-48.733-19.677-103.617-31.895-164.961-31.895-240.429 0-382.016 186.989-440.781 280.487 23.967 50.825 81.078 129.275 166.846 190.29l27.529-27.529z" />
<glyph unicode="&#xe943;" glyph-name="filter" data-tags="filter" d="M463.957 618.667h357.376c17.673 0 32 14.327 32 32s-14.327 32-32 32h-353.318c-10.5 84.188-82.316 149.333-169.348 149.333-94.257 0-170.667-76.41-170.667-170.667s76.41-170.667 170.667-170.667c79.524 0 146.342 54.39 165.291 128zM405.333 661.333c0-58.91-47.756-106.667-106.667-106.667s-106.667 47.756-106.667 106.667c0 58.91 47.756 106.667 106.667 106.667s106.667-47.756 106.667-106.667zM513.318 213.333h-353.318c-17.673 0-32 14.327-32 32s14.327 32 32 32h357.376c18.948 73.609 85.769 128 165.291 128 94.255 0 170.667-76.412 170.667-170.667s-76.412-170.667-170.667-170.667c-87.031 0-158.848 65.143-169.348 149.333zM682.667 341.333c-58.91 0-106.667-47.757-106.667-106.667s47.757-106.667 106.667-106.667c58.91 0 106.667 47.757 106.667 106.667s-47.757 106.667-106.667 106.667z" />
<glyph unicode="&#xe944;" glyph-name="trash" data-tags="trash" horiz-adv-x="935" d="M372.349 514.651c12.292 0 22.259-9.966 22.261-22.261v-285.761c0-12.295-9.968-22.261-22.261-22.261-12.292 0.004-22.261 9.971-22.261 22.261v285.761c0 12.292 9.971 22.259 22.261 22.261zM562.871 514.651c12.292 0 22.259-9.968 22.261-22.261v-285.761c0-12.292-9.968-22.259-22.261-22.261-12.295 0-22.261 9.966-22.261 22.261v285.761c0 12.295 9.966 22.261 22.261 22.261zM562.871 943.304c31.049-0.003 60.256-15.3 81.239-36.283 20.981-20.984 36.281-50.188 36.283-81.239v-73h238.129v-44.522h-95.261v-644.521c-0.002-31.052-15.3-60.256-36.283-81.239-20.981-20.981-50.169-36.281-81.217-36.283h-476.282c-31.052 0-60.255 15.3-81.239 36.283-19.671 19.672-34.35 46.565-36.109 75.433l-0.174 5.806v644.521h-95.261v44.522h238.151v73c0.002 31.053 15.3 60.255 36.283 81.239 20.985 20.981 50.189 36.283 81.239 36.283h190.502zM156.478 63.74l0.109-3.13c0.989-15.736 9.317-32.817 23.13-46.632 14.736-14.732 33.189-23.238 49.761-23.238h476.282c16.569 0.002 35.007 8.508 49.74 23.238 14.734 14.734 23.236 33.189 23.238 49.762v644.521h-622.26v-644.521zM372.369 898.783c-16.571 0-35.025-8.507-49.76-23.239-14.734-14.735-23.238-33.188-23.24-49.761v-73h336.502v73c-0.002 16.572-8.506 35.026-23.24 49.761-14.732 14.733-33.189 23.236-49.76 23.239h-190.502z" />
<glyph unicode="&#xe945;" glyph-name="location" data-tags="location" d="M789.333 519.113c0 163.508-126.605 291.554-277.333 291.554-150.73 0-277.333-128.047-277.333-291.554 0-104.7 70.328-213.521 153.555-303.108 40.212-43.281 80.634-79.095 111.077-104.115 4.471-3.674 8.717-7.104 12.702-10.283 3.985 3.179 8.23 6.609 12.702 10.283 30.443 25.020 70.865 60.834 111.078 104.115 83.226 89.587 153.553 198.409 153.553 303.108zM853.333 519.113c0-260.74-341.333-497.779-341.333-497.779s-341.333 237.039-341.333 497.779c0 196.367 152.82 355.554 341.333 355.554s341.333-159.188 341.333-355.554zM512 533.333c23.565 0 42.667 19.103 42.667 42.667s-19.102 42.667-42.667 42.667c-23.565 0-42.667-19.103-42.667-42.667s19.102-42.667 42.667-42.667z" />
<glyph unicode="&#xe946;" glyph-name="globe" data-tags="globe" d="M511.996-49.771c274.912 0 497.788 222.859 497.79 497.771l-0.166 12.853c-6.814 268.979-227.004 484.938-497.623 484.938l-12.834-0.167c-268.981-6.811-484.938-227.003-484.938-497.625 0.004-274.91 222.862-497.766 497.772-497.771zM533.329 900.313c38.534-10.032 80.501-47.401 116.499-119.396 10.963-21.927 20.843-46.293 29.542-72.688-46.551-10.615-95.868-16.762-146.042-18.125v210.209zM490.662 690.084c-50.167 1.361-99.479 7.526-146.042 18.144 8.698 26.398 18.598 50.761 29.562 72.688 35.989 71.978 77.948 109.333 116.48 119.375v-210.207zM303.223 719.063c-42.963 12.766-81.751 29.239-115.187 48.561 56.333 57.097 127.644 99.352 207.562 120.438-37.506-39.774-69.331-98.15-92.375-168.999zM720.723 719.042c-23.042 70.857-54.822 129.247-92.333 169.020 79.917-21.083 151.206-63.348 207.541-120.438-33.434-19.319-72.222-35.813-115.209-48.583zM57.391 469.333c4.643 100.627 41.97 192.717 101.604 265.916 38.545-23.268 83.237-42.598 132.312-57.165-16.42-62.895-26.377-133.664-27.957-208.751h-205.959zM760.621 469.333c-1.583 75.076-11.482 145.843-27.898 208.73 49.067 14.564 93.722 33.933 132.252 57.186 59.644-73.203 97.001-165.28 101.645-265.916h-205.999zM533.329 647.418c54.17 1.391 107.571 8.075 158.103 19.791 15.396-58.995 24.941-126.052 26.522-197.875h-184.625v178.084zM306.057 469.333c1.581 71.814 11.108 138.863 26.5 197.854 50.537-11.716 103.947-18.377 158.106-19.77v-178.084h-184.606zM158.974 160.77c-59.625 73.195-96.939 165.278-101.583 265.897h205.959c1.585-75.093 11.531-145.873 27.957-208.77-49.056-14.562-93.768-33.845-132.333-57.126zM691.411 228.791c-50.534 11.718-103.927 18.398-158.082 19.791v178.084h184.625c-1.583-71.823-11.145-138.878-26.543-197.875zM865.015 160.791c-38.551 23.266-83.26 42.526-132.311 57.084 16.427 62.901 26.332 133.69 27.917 208.791h205.999c-4.644-100.617-41.978-192.683-101.604-265.875zM332.557 228.791c-15.396 58.995-24.917 126.057-26.5 197.875h184.606v-178.063c-54.153-1.395-107.558-8.092-158.106-19.812zM490.662-4.292c-38.532 10.042-80.489 47.42-116.48 119.396-10.965 21.929-20.883 46.289-29.583 72.687 46.577 10.624 95.898 16.766 146.063 18.125v-210.208zM533.329 205.916c50.165-1.361 99.477-7.524 146.042-18.144-8.698-26.389-18.581-50.748-29.542-72.668-36-71.994-77.963-109.387-116.499-119.415v210.227zM395.599 7.938c-79.919 21.082-151.23 63.345-207.562 120.437 33.463 19.339 72.254 35.823 115.187 48.582 23.046-70.857 54.865-129.246 92.375-169.020zM628.412 7.938c37.502 39.767 69.269 98.159 92.311 168.998 42.959-12.762 81.766-29.222 115.23-48.561-56.331-57.086-127.631-99.356-207.541-120.437z" />
<glyph unicode="&#xe947;" glyph-name="mail" data-tags="mail" d="M844.35 771.296c50.295-0.005 91.065-40.769 91.065-91.065v-464.485c0-50.295-40.769-91.060-91.065-91.065h-664.7c-48.718 0-88.492 38.251-90.939 86.367l-0.126 4.699v464.485c0.001 50.295 40.766 91.065 91.065 91.065h664.7zM522.196 442.438l-10.195-6.864-384.876 259.67c-1.354-4.766-2.122-9.795-2.122-14.993v-464.485l0.066-2.828c1.474-28.869 25.334-51.807 54.569-51.807h664.7c30.169 0.006 54.635 24.47 54.635 54.635v464.485c0 5.198-0.777 10.226-2.128 14.993l-374.661-252.806zM179.651 734.875c-11.691 0-22.506-3.698-31.386-9.942l363.741-245.413 363.73 245.407c-8.877 6.244-19.69 9.962-31.381 9.962h-664.7z" />
<glyph unicode="&#xe948;" glyph-name="unlock" data-tags="unlock" d="M512 768.791c-76.582 0-138.667-62.083-138.667-138.666v-139.476h309.333c94.255 0 170.667-76.412 170.667-170.667v-288h-682.667v288c0 83.319 59.706 152.691 138.667 167.671v142.471c0 111.93 90.737 202.666 202.667 202.666 111.932 0 202.667-90.737 202.667-202.667v-11.476h-64v11.476c0 76.584-62.084 138.667-138.667 138.667zM341.333 426.65c-58.91 0-106.667-47.757-106.667-106.667v-224h554.667v224c0 58.91-47.757 106.667-106.667 106.667h-341.333zM512 234.65c23.565 0 42.667 19.102 42.667 42.667s-19.102 42.667-42.667 42.667c-23.565 0-42.667-19.102-42.667-42.667s19.102-42.667 42.667-42.667z" />
<glyph unicode="&#xe949;" glyph-name="lock" data-tags="lock" horiz-adv-x="890" d="M436.914 945.522c134.166-0.003 242.933-108.766 242.933-242.935v-164c107.691-3.375 193.957-91.686 193.957-200.194v-355.871c-0.004-24.585-19.935-44.522-44.522-44.522h-784.76c-24.586 0-44.518 19.937-44.522 44.522v355.871c0 108.517 86.278 196.831 193.978 200.194v164c0.002 134.171 108.763 242.935 242.936 242.935zM200.348 489.761c-83.602 0-151.369-67.769-151.369-151.369v-351.435h775.869v351.435c0 83.601-67.789 151.369-151.392 151.369h-473.108zM436.914 896.565c-107.124 0-193.977-86.855-193.979-193.979v-163.847h387.933v163.847c0 107.122-86.835 193.975-193.955 193.979z" />
<glyph unicode="&#xe94a;" glyph-name="lockFilled" data-tags="lockFilled" d="M373.333 629.333v-128h277.333v128c0 76.584-62.084 138.667-138.667 138.667s-138.667-62.083-138.667-138.667zM309.333 498.338v130.995c0 111.93 90.737 202.667 202.667 202.667 111.932 0 202.667-90.737 202.667-202.667v-130.995c78.959-14.98 138.667-84.352 138.667-167.671v-213.333c0-47.13-38.204-85.333-85.333-85.333h-512c-47.128 0-85.333 38.204-85.333 85.333v213.333c0 83.319 59.706 152.691 138.667 167.671z" />
<glyph unicode="&#xe94b;" glyph-name="promofill" data-tags="promofill" d="M115.899 844.101l396.571 22.419 361.996-361.997c74.732-74.732 74.732-195.896 0-270.634l-148.361-148.355c-74.732-74.732-195.892-74.732-270.63 0l-361.997 361.995 22.419 396.571zM319.508 595.24c24.985 0 45.245 20.26 45.245 45.245s-20.26 45.245-45.245 45.245c-24.986 0-45.245-20.259-45.245-45.245s20.259-45.245 45.245-45.245z" />
<glyph unicode="&#xe94c;" glyph-name="promo" data-tags="promo" d="M341.334 575.979c23.564 0 42.667 19.103 42.667 42.667s-19.102 42.667-42.667 42.667c-23.564 0-42.667-19.102-42.667-42.667s19.103-42.667 42.667-42.667zM128.19 436.685l341.365-341.363c70.473-70.473 184.73-70.473 255.202 0l139.904 139.904c70.473 70.473 70.473 184.73 0 255.202l-341.363 341.364-373.963-21.145-21.145-373.962zM514.807 140.574l-321.102 321.105 16.301 288.296 288.297 16.301 321.101-321.105c45.478-45.478 45.478-119.215 0-164.693l-139.904-139.904c-45.478-45.478-119.211-45.478-164.693 0z" />
<glyph unicode="&#xe94d;" glyph-name="question" data-tags="question" d="M874.667 448c0 200.295-162.372 362.667-362.667 362.667s-362.667-162.371-362.667-362.667c0-200.294 162.371-362.667 362.667-362.667s362.667 162.372 362.667 362.667zM938.667 448c0-235.639-191.027-426.667-426.667-426.667-235.642 0-426.667 191.027-426.667 426.667 0 235.642 191.025 426.667 426.667 426.667 235.639 0 426.667-191.025 426.667-426.667zM460.122 614.448c4.642 2.613 9.195 4.806 14.844 6.467 5.653 1.664 13.402 3.084 24.269 3.084 17.553 0 38.827-9.719 49.907-23.268 13.47-16.469 16.781-27.977 16.759-43.416v-0.061c0-18.953-12.565-35.061-35.644-49.068-10.842-6.579-22.016-11.366-30.673-14.519-4.258-1.553-7.748-2.65-10.061-3.332-1.152-0.337-1.997-0.572-2.492-0.704l-0.435-0.115 0.073 0.017c-17.903-4.378-30.545-20.433-30.545-38.865v-93.333h80v64.213l0.559 0.704c10.381 4.237 22.639 9.993 35.081 17.545 31.799 19.298 74.108 56.465 74.138 117.398 0.051 34.904-10.27 64.155-34.833 94.186-26.948 32.951-71.364 52.621-111.834 52.621-37.444 0-61.402-10.295-78.355-19.838-29.428-16.565-53.985-44.811-65.92-77.754l-13.626-37.608 75.216-27.251 13.625 37.608c5.269 14.548 16.841 27.912 29.948 35.29zM499.238 210.667c29.453 0 53.333 23.876 53.333 53.333s-23.881 53.333-53.333 53.333c-29.457 0-53.333-23.876-53.333-53.333s23.876-53.333 53.333-53.333z" />
<glyph unicode="&#xe94e;" glyph-name="search" data-tags="search" d="M642.142 257.365l193.481-193.365 60.378 60.339-193.421 193.306c41.28 53.879 65.805 121.254 65.805 194.355 0 176.731-143.356 320-320.192 320-176.838 0-320.192-143.269-320.192-320s143.354-320 320.192-320c72.909 0 140.126 24.354 193.95 65.365zM682.999 512c0-129.604-105.126-234.667-234.807-234.667s-234.807 105.062-234.807 234.667c0 129.603 105.126 234.667 234.807 234.667s234.807-105.064 234.807-234.667z" />
<glyph unicode="&#xe94f;" glyph-name="subscriptions" data-tags="subscriptions" d="M128 746.667v-170.667c0-47.13 38.205-85.333 85.333-85.333h256v256c0 47.128-38.204 85.333-85.333 85.333h-170.667c-47.128 0-85.333-38.205-85.333-85.333zM213.333 768h170.667c11.782 0 21.333-9.551 21.333-21.333v-192h-192c-11.782 0-21.333 9.551-21.333 21.333v170.667c0 11.782 9.551 21.333 21.333 21.333zM775.113 259.554c-13.747 0-24.892 11.145-24.892 24.892v120.887h-49.775v-120.887c0-13.747-11.145-24.892-24.892-24.892h-120.887v-49.775h120.887c13.747 0 24.892-11.145 24.892-24.892v-120.887h49.775v120.887c0 13.747 11.145 24.892 24.892 24.892h120.887v49.775h-120.887zM213.333 405.333h256v-256c0-47.13-38.204-85.333-85.333-85.333h-170.667c-47.128 0-85.333 38.204-85.333 85.333v170.667c0 47.13 38.205 85.333 85.333 85.333zM405.333 341.333h-192c-11.782 0-21.333-9.553-21.333-21.333v-170.667c0-11.78 9.551-21.333 21.333-21.333h170.667c11.782 0 21.333 9.553 21.333 21.333v192zM554.667 746.667v-256h256c47.13 0 85.333 38.204 85.333 85.333v170.667c0 47.128-38.204 85.333-85.333 85.333h-170.667c-47.13 0-85.333-38.205-85.333-85.333zM640 768h170.667c11.78 0 21.333-9.551 21.333-21.333v-170.667c0-11.782-9.553-21.333-21.333-21.333h-192v192c0 11.782 9.553 21.333 21.333 21.333z" />
<glyph unicode="&#xe950;" glyph-name="services" data-tags="services" d="M213.333 768c-11.782 0-21.333-9.551-21.333-21.333v-170.667c0-11.782 9.551-21.333 21.333-21.333h192v192c0 11.782-9.551 21.333-21.333 21.333h-170.667zM384 832c47.13 0 85.333-38.205 85.333-85.333v-256h-256c-47.128 0-85.333 38.204-85.333 85.333v170.667c0 47.128 38.205 85.333 85.333 85.333h170.667zM213.333 128c-11.782 0-21.333 9.553-21.333 21.333v170.667c0 11.78 9.551 21.333 21.333 21.333h192v-192c0-11.78-9.551-21.333-21.333-21.333h-170.667zM384 64c47.13 0 85.333 38.204 85.333 85.333v256h-256c-47.128 0-85.333-38.204-85.333-85.333v-170.667c0-47.13 38.205-85.333 85.333-85.333h170.667zM810.667 768c11.78 0 21.333-9.551 21.333-21.333v-170.667c0-11.782-9.553-21.333-21.333-21.333h-192v192c0 11.782 9.553 21.333 21.333 21.333h170.667zM640 832c-47.13 0-85.333-38.205-85.333-85.333v-256h256c47.13 0 85.333 38.204 85.333 85.333v170.667c0 47.128-38.204 85.333-85.333 85.333h-170.667zM810.667 128c11.78 0 21.333 9.553 21.333 21.333v170.667c0 11.78-9.553 21.333-21.333 21.333h-192v-192c0-11.78 9.553-21.333 21.333-21.333h170.667zM640 64c-47.13 0-85.333 38.204-85.333 85.333v256h256c47.13 0 85.333-38.204 85.333-85.333v-170.667c0-47.13-38.204-85.333-85.333-85.333h-170.667z" />
<glyph unicode="&#xe951;" glyph-name="servicesFill" data-tags="servicesFill" d="M469.333 746.667c0 47.128-38.204 85.333-85.333 85.333h-170.667c-47.128 0-85.333-38.205-85.333-85.333v-170.667c0-47.13 38.205-85.333 85.333-85.333h256v256zM469.333 149.333c0-47.13-38.204-85.333-85.333-85.333h-170.667c-47.128 0-85.333 38.204-85.333 85.333v170.667c0 47.13 38.205 85.333 85.333 85.333h256v-256zM554.667 746.667c0 47.128 38.204 85.333 85.333 85.333h170.667c47.13 0 85.333-38.205 85.333-85.333v-170.667c0-47.13-38.204-85.333-85.333-85.333h-256v256zM554.667 149.333c0-47.13 38.204-85.333 85.333-85.333h170.667c47.13 0 85.333 38.204 85.333 85.333v170.667c0 47.13-38.204 85.333-85.333 85.333h-256v-256z" />
<glyph unicode="&#xe952;" glyph-name="share" data-tags="share" d="M338.745 704.006l120.459 120.457c29.158 29.159 76.433 29.159 105.591 0l120.461-120.457-45.257-45.255-95.642 95.64-0.435-392.212-64 0.068 0.435 392.864-96.358-96.361-45.255 45.255zM138.667 490.675c0 64.799 52.532 117.331 117.333 117.331h119.467v-64h-119.467c-29.455 0-53.333-23.878-53.333-53.331v-341.333c0-29.457 23.878-53.333 53.333-53.333h512c29.457 0 53.333 23.876 53.333 53.333v341.333c0 29.453-23.876 53.331-53.333 53.331h-119.467v64h119.467c64.802 0 117.333-52.532 117.333-117.331v-341.333c0-64.802-52.531-117.333-117.333-117.333h-512c-64.801 0-117.333 52.531-117.333 117.333v341.333z" />
<glyph unicode="&#xe953;" glyph-name="link" data-tags="link" d="M599.556 360.444l60.949 60.954-45.252 45.257-62.178-62.178c-54.153-54.153-141.953-54.153-196.105 0l-124.355 124.356c-54.153 54.151-54.153 141.95 0 196.103l2.451 2.451c54.153 54.153 141.952 54.153 196.103 0l104.845-104.845 45.257 45.255-104.845 104.845c-79.147 79.146-207.468 79.146-286.614 0l-2.451-2.451c-79.146-79.146-79.146-207.468 0-286.614l124.355-124.356c79.146-79.147 207.466-79.147 286.612 0l1.229 1.225zM428.42 531.58l-60.953-60.954 45.255-45.252 62.179 62.178c54.153 54.151 141.952 54.151 196.105 0l124.352-124.356c54.153-54.153 54.153-141.952 0-196.105l-2.449-2.449c-54.153-54.153-141.952-54.153-196.105 0l-104.845 104.845-45.257-45.252 104.849-104.849c79.142-79.147 207.467-79.147 286.613 0l2.449 2.449c79.147 79.147 79.147 207.471 0 286.613l-124.356 124.356c-79.147 79.147-207.467 79.147-286.613 0l-1.225-1.225z" />
<glyph unicode="&#xe954;" glyph-name="linkOut" data-tags="linkOut" d="M256 757.333c-29.455 0-53.333-23.878-53.333-53.333v-565.333h565.333c29.457 0 53.333 23.876 53.333 53.333v85.333h64v-85.333c0-64.802-52.531-117.333-117.333-117.333h-629.333v629.333c0 64.801 52.532 117.333 117.333 117.333h85.333v-64h-85.333zM768 757.333h-256v64h256c64.802 0 117.333-52.532 117.333-117.333v-256h-64v256c0 2.563-0.179 5.083-0.529 7.549l-371.511-371.508-45.254 45.252 371.508 371.511c-2.466 0.349-4.983 0.53-7.548 0.53z" />
<glyph unicode="&#xe955;" glyph-name="pdf" data-tags="pdf" d="M565.333 810.667h-266.667c-35.346 0-64-28.654-64-64v-661.333h490.667c35.345 0 64 28.655 64 64v437.333h-224v224zM748.113 650.667l-118.78 115.479v-115.479h118.78zM298.667 874.667h310.857l243.81-237.037v-488.296c0-70.694-57.306-128-128-128h-554.667v725.333c0 70.692 57.308 128 128 128zM717.090 335.701c-12.369 13.824-36.070 20.203-70.080 20.203-18.551 0-38.135-2.125-56.687-5.316-12.365 11.695-22.673 25.519-32.977 39.343v0c-7.215 10.633-14.43 21.265-20.612 32.96 10.308 29.773 16.491 61.67 18.551 93.568 0 28.707-11.337 59.541-42.253 59.541-10.308 0-20.612-6.38-25.766-15.949-13.397-23.392-8.243-71.241 13.397-121.212-7.215-22.327-15.458-44.659-24.734-69.111-8.243-21.265-17.519-41.468-28.855-60.608-31.95-12.757-98.939-44.655-105.123-79.744-2.061-10.633 1.031-21.265 9.275-27.644 7.215-6.379 17.52-10.633 27.826-9.57 40.193 0 80.386 57.417 108.213 107.392 15.458 5.316 30.916 10.633 47.407 14.882 4.177 1.015 8.294 2.031 12.352 3.029l0.017 0.004c12.962 3.191 25.331 6.234 37.099 8.666 43.285-38.281 81.417-44.659 99.968-44.659 25.766 0 36.070 11.695 39.164 21.265 4.122 11.695 2.061 24.457-6.182 32.96zM689.263 315.503c-1.033-7.445-9.276-12.762-19.58-12.762-3.093 0-6.187 0-9.276 1.062-20.612 5.316-40.196 15.949-56.683 29.773 13.397 2.125 27.823 3.191 41.22 3.191 9.276 0 18.551-1.067 27.827-2.129 9.276-2.125 19.584-6.379 16.491-19.136zM504.785 550.482c2.061 3.19 5.154 5.316 9.276 6.38 10.308 0 12.369-11.696 12.369-22.329-1.033-24.457-5.154-47.847-12.369-71.237-17.519 45.717-15.458 76.553-9.276 87.186zM562.5 346.334c-11.337-2.125-22.673-5.316-34.010-8.503-3.58-0.926-7.159-2.048-10.82-3.196-4.774-1.502-9.694-3.046-14.946-4.25 4.122 9.57 8.243 19.14 12.369 27.648 5.15 11.695 9.271 23.39 13.397 35.085v0 0c1.062-1.647 2.061-3.221 3.021-4.745l0.004-0.004c2.761-4.378 5.252-8.32 8.311-12.262 4.651-6.857 9.737-13.274 14.694-19.533 2.726-3.443 5.419-6.839 7.979-10.24zM437.798 284.668c-25.766-42.53-51.531-70.178-65.959-70.178-2.061 0-5.153 1.067-6.184 2.129-3.092 2.125-4.122 6.379-3.092 9.57 2.061 15.949 31.949 38.276 75.235 58.479z" />
<glyph unicode="&#xe956;" glyph-name="file" data-tags="file" d="M565.333 810.667h-266.667c-35.346 0-64-28.654-64-64v-661.333h490.667c35.345 0 64 28.655 64 64v437.333h-224v224zM748.113 650.667l-118.78 115.479v-115.479h118.78zM298.667 874.667h310.857l243.81-237.037v-488.296c0-70.694-57.306-128-128-128h-554.667v725.333c0 70.692 57.308 128 128 128zM683.162 288.521h-342.125v64h342.125v-64zM373.036 480h-32v-64h342.509v64h-310.509z" />
<glyph unicode="&#xe957;" glyph-name="starOutline" data-tags="starOutline" d="M416.236 810.853c38.006 85.085 153.522 85.085 191.529 0l70.822-158.554 166.494-20.384c90.048-11.024 125.956-127.877 58.953-191.856l-122.052-116.548 32.572-169.259c17.796-92.476-75.874-164.433-154.726-118.857l-147.827 85.444-147.829-85.444c-78.85-45.577-172.519 26.381-154.724 118.857l32.57 169.259-122.053 116.548c-67 63.979-31.093 180.832 58.955 191.856l166.492 20.384 70.826 158.554zM556.292 785.623c-17.579 39.352-71.006 39.352-88.585 0l-84.247-188.6-197.946-24.235c-41.648-5.099-58.255-59.142-27.267-88.735l145.836-139.26-38.929-202.304c-8.23-42.769 35.092-76.049 71.561-54.972l175.284 101.316 175.283-101.316c36.471-21.077 79.791 12.203 71.561 54.972l-38.929 202.304 145.835 139.26c30.989 29.594 14.383 83.636-27.264 88.735l-197.948 24.235-84.245 188.599z" />
<glyph unicode="&#xe958;" glyph-name="starFill" data-tags="starFill" d="M436.971 824.498c29.777 66.891 120.282 66.891 150.059 0l83.076-186.612 195.238-23.984c70.549-8.667 98.684-100.533 46.191-150.828l-143.514-137.51 38.302-199.735c13.943-72.7-59.447-129.267-121.225-93.44l-173.099 100.395-173.099-100.395c-61.778-35.827-135.168 20.74-121.226 93.44l38.304 199.735-143.514 137.51c-52.494 50.295-24.361 142.161 46.191 150.828l195.237 23.984 83.077 186.612z" />
<glyph unicode="&#xe959;" glyph-name="speed" data-tags="speed" d="M573.175 873.277c14.063-4.431 22.814-18.43 20.638-33.012l-42.057-281.637h173.572c10.906 0 20.949-5.923 26.227-15.466s4.954-21.2-0.841-30.437l-299.61-477.35c-7.842-12.493-23.607-17.425-37.171-11.622-13.562 5.803-20.887 20.608-17.267 34.91l71.693 283.255h-139.724c-10.379 0-20.019 5.372-25.482 14.195-5.463 8.828-5.971 19.849-1.343 29.141l235.533 472.802c6.575 13.196 21.773 19.651 35.831 15.221zM377.050 401.86h129.809c9.246 0 17.971-4.267 23.65-11.563 5.679-7.292 7.676-16.798 5.406-25.762l-34.475-136.218 169.694 270.37h-154.155c-8.721 0-17.011 3.802-22.703 10.406s-8.226 15.364-6.938 23.991l19.226 128.757-129.514-259.983z" />
<glyph unicode="&#xe95a;" glyph-name="thunder" data-tags="thunder" d="M403.107 917.333h345.412l-149.321-329.481h136.23c62.345 0 97.233-71.884 58.662-120.861l-20.326-25.813-359.189-453.833c-17.644-22.293-48.503-29.154-73.932-16.439-27.212 13.606-39.947 45.414-29.641 74.039l104.14 289.276h-127.075c-52.37 0-88.469 52.51-69.715 101.406l184.754 481.707zM447.104 853.333l-168.996-440.623c-2.679-6.989 2.478-14.49 9.959-14.49h218.135l-126.779-352.166 364.39 460.531c5.508 6.997 0.525 17.267-8.384 17.267h-235.503l149.325 329.481h-202.146z" />
<glyph unicode="&#xe95b;" glyph-name="thunderdata" data-tags="thunderdata" horiz-adv-x="801" d="M168.457 960h320.067l-133.563-289.391h103.64c64.2 0 100.851-73.298 62.33-124.661l-13.357-17.809-53.426 40.070 13.357 17.809c5.503 7.338 0.267 17.809-8.904 17.809h-208.015l133.565 289.391h-169.671l-146.896-385.603c-2.775-7.284 2.605-15.093 10.401-15.093h183.126l-108.703-304.368 34.608 46.142 53.426-40.070-52.297-69.73c-18.071-24.095-50.788-31.815-77.726-18.347-28.19 14.096-41.419 47.019-30.819 76.702l86.747 242.888h-88.362c-54.572 0-92.236 54.655-72.809 105.65l163.281 428.611zM543.263 358.957v-246.926h-49.384v246.926h49.384zM444.494 227.261v-115.231h-49.386v115.231h49.386zM642.035 112.030v181.079h-49.384v-181.079h49.384zM525.383-30.609c-147.534 0-267.132 119.599-267.132 267.13s119.598 267.13 267.132 267.13c147.532 0 267.13-119.599 267.13-267.13s-119.599-267.13-267.13-267.13zM525.383 36.174c110.645 0 200.348 89.698 200.348 200.348s-89.702 200.348-200.348 200.348c-110.651 0-200.35-89.698-200.35-200.348s89.699-200.348 200.35-200.348z" />
<glyph unicode="&#xe95c;" glyph-name="thunderSetting" data-tags="thunderSetting" d="M311.491 917.333h-22.053l-156.477-410.752c-18.618-48.87 17.477-101.248 69.775-101.248h84.68l-83.132-232.768c-10.159-28.446 2.519-59.998 29.535-73.506 25.816-12.907 57.169-5.508 74.488 17.583l50.118 66.825-51.2 38.4-33.166-44.22 104.174 291.686h-175.496c-7.471 0-12.628 7.484-9.968 14.464l140.775 369.536h162.602l-128.001-277.333h199.348c8.789 0 13.807-10.035 8.533-17.067l-12.8-17.067 51.2-38.4 12.8 17.067c36.915 49.223 1.792 119.467-59.733 119.467h-99.324l128 277.333h-284.678zM370.835 153.493l49.832 43.793c9.362 8.226 13.923 20.757 13.923 33.783s-4.561 25.557-13.922 33.783l-49.832 43.793c-2.657 2.334-3.297 6.221-1.528 9.284l47.896 82.961c1.769 3.063 5.455 4.45 8.806 3.319l62.831-21.257c11.814-3.998 24.892-1.702 36.169 4.83 11.281 6.532 19.917 16.772 22.357 28.975l13.009 65.024c0.691 3.469 3.738 5.965 7.275 5.965h95.795c3.537 0 6.583-2.496 7.275-5.965l13.005-65.024c2.441-12.203 11.081-22.443 22.362-28.979 11.277-6.528 24.354-8.823 36.169-4.826l62.831 21.252c3.354 1.135 7.040-0.256 8.806-3.319l47.898-82.957c1.771-3.063 1.131-6.95-1.527-9.284l-49.839-43.802c-9.357-8.222-13.918-20.749-13.918-33.775s4.561-25.553 13.922-33.779l49.835-43.797c2.658-2.334 3.294-6.221 1.527-9.284l-47.898-82.961c-1.766-3.063-5.453-4.45-8.806-3.319l-62.835 21.257c-11.814 3.998-24.887 1.702-36.164-4.826-11.285-6.532-19.921-16.772-22.362-28.975l-13.005-65.033c-0.695-3.469-3.742-5.965-7.279-5.965h-95.791c-3.537 0-6.583 2.496-7.279 5.965l-13.005 65.033c-2.441 12.203-11.076 22.443-22.357 28.975-11.277 6.528-24.35 8.823-36.164 4.826l-62.836-21.257c-3.351-1.131-7.037 0.256-8.806 3.319l-47.896 82.961c-1.769 3.063-1.129 6.95 1.528 9.284zM623.731 30.251l5.218 26.086c6.31 31.543 27.52 53.845 49.148 66.364 21.875 12.663 51.703 19.669 82.057 9.399l25.216-8.529 8.188 14.178-20.006 17.583c-24.081 21.158-32.909 50.551-32.909 75.738s8.828 54.575 32.905 75.738l20.011 17.583-8.183 14.178-25.216-8.529c-30.357-10.27-60.186-3.264-82.061 9.399-21.623 12.523-42.837 34.82-49.148 66.364l-5.218 26.086h-16.371l-5.214-26.086c-6.31-31.543-27.524-53.841-49.148-66.364-21.875-12.663-51.703-19.669-82.057-9.399l-25.216 8.529-8.183-14.178 20.002-17.579c24.081-21.163 32.909-50.556 32.909-75.742s-8.828-54.579-32.909-75.742l-20.006-17.579 8.188-14.178 25.22 8.529c30.349 10.27 60.177 3.264 82.052-9.399 21.623-12.518 42.833-34.816 49.143-66.359l5.218-26.091h16.371zM700.22 231.070c0-45.922-37.222-83.149-83.145-83.149s-83.145 37.227-83.145 83.149c0 45.918 37.222 83.145 83.145 83.145s83.145-37.227 83.145-83.145zM617.075 203.785c15.070 0 27.285 12.215 27.285 27.285s-12.215 27.285-27.285 27.285c-15.070 0-27.285-12.215-27.285-27.285s12.215-27.285 27.285-27.285z" />
<glyph unicode="&#xe95d;" glyph-name="time" data-tags="time" horiz-adv-x="801" d="M168.457 960h320.067l-133.563-289.391h103.64c64.2 0 100.851-73.298 62.33-124.661l-13.357-17.809-53.426 40.070 13.357 17.809c5.503 7.338 0.267 17.809-8.904 17.809h-208.015l133.565 289.391h-169.671l-146.896-385.603c-2.775-7.284 2.605-15.093 10.401-15.093h183.126l-108.703-304.368 34.608 46.142 53.426-40.070-52.297-69.73c-18.071-24.095-50.788-31.815-77.726-18.347-28.19 14.096-41.419 47.019-30.819 76.702l86.747 242.888h-88.362c-54.572 0-92.236 54.655-72.809 105.65l163.281 428.611zM469.731 239.469v108.357h66.783v-108.357c0-3.909 2.048-7.533 5.4-9.545l89.689-53.813-34.357-57.264-89.689 53.813c-23.467 14.078-37.826 39.442-37.826 66.809zM792.514 236.522c0 147.532-119.599 267.13-267.13 267.13-147.534 0-267.132-119.599-267.132-267.13s119.598-267.13 267.132-267.13c147.532 0 267.13 119.599 267.13 267.13zM725.731 236.522c0-110.65-89.702-200.348-200.348-200.348-110.651 0-200.35 89.698-200.35 200.348s89.699 200.348 200.35 200.348c110.645 0 200.348-89.698 200.348-200.348z" />
<glyph unicode="&#xe95e;" glyph-name="unlimited" data-tags="unlimited" d="M828.518 553.044c-62.242 59.108-163.802 59.108-226.039 0l-44.070 46.407c86.938 82.566 227.243 82.566 314.18 0 87.872-83.453 87.872-219.478 0-302.93-86.938-82.564-227.243-82.564-314.18 0-2.479 2.355-4.565 5.090-6.178 8.107l-134.711 251.756c-62.496 55.747-161.364 54.634-222.409-3.339-61.303-58.221-61.303-151.896 0-210.119 62.239-59.106 163.798-59.106 226.036 0l44.073-46.404c-86.939-82.564-227.244-82.564-314.182 0-87.873 83.452-87.873 219.477 0 302.93 86.938 82.566 227.243 82.566 314.182 0 2.479-2.355 4.565-5.091 6.178-8.106l134.711-251.756c62.494-55.748 161.361-54.635 222.409 3.341 61.303 58.219 61.303 151.893 0 210.115z" />
<glyph unicode="&#xe95f;" glyph-name="addSquare" data-tags="addSquare" d="M512 832c97.271 0 185.685-8.89 253.082-18.542 77.513-11.109 130.918-79.068 130.918-157.375v-416.169l-0.623-14.541c-6.153-72.034-57.621-132.416-130.295-142.831l-26.249-3.584c-63.403-8.166-141.722-14.959-226.833-14.959s-163.433 6.793-226.833 14.959l-26.25 3.584c-72.671 10.415-124.143 70.797-130.292 142.831l-0.625 14.541v416.169c0.001 75.872 50.129 142.061 123.75 156.209l7.167 1.167c67.397 9.652 155.812 18.542 253.083 18.542zM512 768c-81.826 0-157.348-6.528-218.625-14.417l-25.375-3.459c-42.844-6.137-75.999-44.276-76-94.042v-416.169c0.001-49.762 33.156-87.902 76-94.042l25.375-3.456c61.277-7.889 136.799-14.417 218.625-14.417 93.521 0 178.803 8.538 244.002 17.873l7.915 1.545c38.942 9.429 68.083 45.845 68.083 92.497v416.169c0 49.766-33.156 87.904-75.998 94.042-65.199 9.336-150.481 17.875-244.002 17.875zM544 490.667c0-5.892 4.774-10.667 10.667-10.667h128v-64h-128c-5.892 0-10.667-4.774-10.667-10.667v-128h-64v128c0 5.892-4.774 10.667-10.667 10.667h-128v64h128c5.892 0 10.667 4.774 10.667 10.667v128h64v-128z" />
<glyph unicode="&#xe960;" glyph-name="Big-expand" data-tags="Big-expand" d="M512 810.667c200.294 0 362.667-162.371 362.667-362.667s-162.372-362.667-362.667-362.667c-200.295 0-362.667 162.372-362.667 362.667s162.371 362.667 362.667 362.667zM512 874.667c-235.642 0-426.667-191.025-426.667-426.667 0-235.639 191.025-426.667 426.667-426.667 235.639 0 426.667 191.027 426.667 426.667 0 235.642-191.027 426.667-426.667 426.667zM576 480c-17.673 0-32 14.327-32 32v192h-64v-192c0-17.673-14.327-32-32-32h-192v-64h192c17.673 0 32-14.327 32-32v-192h64v192c0 17.673 14.327 32 32 32h192v64h-192z" />
</font>
</defs>
</svg>
